<svg xmlns="http://www.w3.org/2000/svg" xmlns:xlink="http://www.w3.org/1999/xlink" width="108" height="108" viewBox="0 0 108 108">
  <defs>
    <filter id="Path_904820" x="0" y="0" width="108" height="108" filterUnits="userSpaceOnUse">
      <feOffset dy="3" input="SourceAlpha"/>
      <feGaussianBlur stdDeviation="3" result="blur"/>
      <feFlood flood-opacity="0.161"/>
      <feComposite operator="in" in2="blur"/>
      <feComposite in="SourceGraphic"/>
    </filter>
  </defs>
  <g id="Group_1145614" data-name="Group 1145614" transform="translate(-201 -481)">
    <g id="Icono" transform="translate(-414.101 -4519)">
      <g transform="matrix(1, 0, 0, 1, 615.1, 5000)" filter="url(#Path_904820)">
        <g id="Path_904820-2" data-name="Path 904820" transform="translate(9 6)" fill="#ebf0f7">
          <path d="M 45 88.5 C 39.12687683105469 88.5 33.43022537231445 87.35007476806641 28.06830024719238 85.08217620849609 C 22.88852500915527 82.89131164550781 18.23629951477051 79.75458526611328 14.2408504486084 75.75914764404297 C 10.24541282653809 71.76370239257812 7.108687400817871 67.11147308349609 4.917825222015381 61.93170166015625 C 2.649924993515015 56.56977462768555 1.5 50.87312316894531 1.5 45 C 1.5 39.12687683105469 2.649924993515015 33.43022537231445 4.917825222015381 28.06830024719238 C 7.108687400817871 22.88852500915527 10.24541282653809 18.23629951477051 14.2408504486084 14.2408504486084 C 18.23629951477051 10.24541282653809 22.88852500915527 7.108687400817871 28.06830024719238 4.917825222015381 C 33.43022537231445 2.649924993515015 39.12687683105469 1.5 45 1.5 C 50.87312316894531 1.5 56.56977462768555 2.649924993515015 61.93170166015625 4.917825222015381 C 67.11147308349609 7.108687400817871 71.76370239257812 10.24541282653809 75.75914764404297 14.2408504486084 C 79.75458526611328 18.23629951477051 82.89131164550781 22.88852500915527 85.08217620849609 28.06830024719238 C 87.35007476806641 33.43022537231445 88.5 39.12687683105469 88.5 45 C 88.5 50.87312316894531 87.35007476806641 56.56977462768555 85.08217620849609 61.93170166015625 C 82.89131164550781 67.11147308349609 79.75458526611328 71.76370239257812 75.75914764404297 75.75914764404297 C 71.76370239257812 79.75458526611328 67.11147308349609 82.89131164550781 61.93170166015625 85.08217620849609 C 56.56977462768555 87.35007476806641 50.87312316894531 88.5 45 88.5 Z" stroke="none"/>
          <path d="M 45 3 C 39.32871246337891 3 33.82865524291992 4.110054016113281 28.65262985229492 6.299339294433594 C 23.65165710449219 8.414573669433594 19.15968322753906 11.44334411621094 15.301513671875 15.301513671875 C 11.44334411621094 19.15968322753906 8.414573669433594 23.65165710449219 6.299339294433594 28.65262985229492 C 4.110054016113281 33.82865524291992 3 39.32871246337891 3 45 C 3 50.67128753662109 4.110054016113281 56.17134475708008 6.299339294433594 61.34737396240234 C 8.414573669433594 66.34834289550781 11.44334411621094 70.84031677246094 15.301513671875 74.698486328125 C 19.15968322753906 78.55665588378906 23.65165710449219 81.58542633056641 28.65262985229492 83.70066070556641 C 33.82865524291992 85.88994598388672 39.32871246337891 87 45 87 C 50.67128753662109 87 56.17134475708008 85.88994598388672 61.34737396240234 83.70066070556641 C 66.34834289550781 81.58542633056641 70.84031677246094 78.55665588378906 74.698486328125 74.698486328125 C 78.55665588378906 70.84031677246094 81.58542633056641 66.34834289550781 83.70066070556641 61.34737396240234 C 85.88994598388672 56.17134475708008 87 50.67128753662109 87 45 C 87 39.32871246337891 85.88994598388672 33.82865524291992 83.70066070556641 28.65262985229492 C 81.58542633056641 23.65165710449219 78.55665588378906 19.15968322753906 74.698486328125 15.301513671875 C 70.84031677246094 11.44334411621094 66.34834289550781 8.414573669433594 61.34737396240234 6.299339294433594 C 56.17134475708008 4.110054016113281 50.67128753662109 3 45 3 M 45 0 C 69.85281372070312 0 90 20.14718627929688 90 45 C 90 69.85281372070312 69.85281372070312 90 45 90 C 20.14718627929688 90 0 69.85281372070312 0 45 C 0 20.14718627929688 20.14718627929688 0 45 0 Z" stroke="none" fill="#6e008a"/>
        </g>
      </g>
    </g>
    <g id="familia" transform="translate(218.01 476.685)">
      <path id="Path_981338" data-name="Path 981338" d="M296.564,63.2h0a13.62,13.62,0,0,1,13.62,13.62h0a140.486,140.486,0,0,0,1.238,17.334A43.736,43.736,0,0,1,296.564,99.1a43.736,43.736,0,0,1-14.858-4.953,140.486,140.486,0,0,0,1.238-17.334h0a13.62,13.62,0,0,1,13.62-13.62Z" transform="translate(-241.002 -35.74)" fill="#d59f63"/>
      <path id="Path_981339" data-name="Path 981339" d="M291.611,75.578V71.864a8.668,8.668,0,0,1,6.979-8.5,13.657,13.657,0,0,0-2.027-.167h0a13.62,13.62,0,0,0-13.62,13.62,140.486,140.486,0,0,1-1.238,17.334A43.735,43.735,0,0,0,296.564,99.1V80.531Z" transform="translate(-241.002 -35.741)" fill="#cd915a"/>
      <path id="Path_981340" data-name="Path 981340" d="M296.9,279.06l-8.49-3.4a2.476,2.476,0,0,1-1.557-2.3v-4.514h-9.905v4.514a2.476,2.476,0,0,1-1.557,2.3l-8.49,3.4a3.714,3.714,0,0,0-2.335,3.449v4.914a1.238,1.238,0,0,0,1.238,1.238h0V299.8H298V288.662h1.238v-6.152A3.715,3.715,0,0,0,296.9,279.06Z" transform="translate(-226.342 -211.679)" fill="#fad7a5"/>
      <g id="Group_1145612" data-name="Group 1145612" transform="translate(39.466 57.172)">
        <path id="Path_981341" data-name="Path 981341" d="M354.459,275.042a14.8,14.8,0,0,0,5.08-.91,2.461,2.461,0,0,1-.127-.767v-4.514h-9.905v4.514a2.458,2.458,0,0,1-.127.767A14.8,14.8,0,0,0,354.459,275.042Z" transform="translate(-338.363 -268.851)" fill="#f0c891"/>
        <path id="Path_981342" data-name="Path 981342" d="M273.138,397.386V401.1h1.238a1.238,1.238,0,0,1,1.238,1.238v7.429h3.714V397.386Z" transform="translate(-273.138 -378.814)" fill="#f0c891"/>
      </g>
      <path id="Path_981343" data-name="Path 981343" d="M325.888,164.407h0c-6.154,0-9.905-4.989-9.905-11.143v-4.953c3.562,0,3.965-2.562,4.605-4a.73.73,0,0,1,1.112-.289c5.246,3.958,15.332,1,15.332,9.242h0A11.144,11.144,0,0,1,325.888,164.407Z" transform="translate(-270.326 -104.759)" fill="#ffe1b4"/>
      <path id="Path_981344" data-name="Path 981344" d="M320.936,153.826v-9.3a.712.712,0,0,0-.348.343c-.64,1.439-1.043,4-4.605,4v4.558c0,5.118,2.059,9.792,7,11.143a10.953,10.953,0,0,0,6.006-.049A11.142,11.142,0,0,1,320.936,153.826Z" transform="translate(-270.326 -105.321)" fill="#fad098"/>
      <path id="Path_981345" data-name="Path 981345" d="M296.9,327l-5.281-2.113a9.9,9.9,0,0,1-19.435,0L266.9,327a3.714,3.714,0,0,0-2.335,3.449v17.3h28.478V336.6h6.191v-6.152A3.715,3.715,0,0,0,296.9,327Z" transform="translate(-226.342 -259.618)" fill="#ff507d"/>
      <g id="Group_1145613" data-name="Group 1145613" transform="translate(42.362 65.269)">
        <path id="Path_981346" data-name="Path 981346" d="M461.654,355.5l5.627-5.627a3.7,3.7,0,0,1,.563,1.952v6.152h-6.191V355.5Z" transform="translate(-437.31 -346.261)" fill="#d23c69"/>
        <path id="Path_981347" data-name="Path 981347" d="M316.1,324.888a9.9,9.9,0,0,1-19.436,0l-3.483,1.393a13.6,13.6,0,0,0,26.4,0Z" transform="translate(-293.177 -324.888)" fill="#d23c69"/>
      </g>
      <rect id="Rectangle_405857" data-name="Rectangle 405857" width="7.428" height="13.62" transform="translate(2.322 74.506)" fill="#b48764"/>
      <path id="Path_981348" data-name="Path 981348" d="M41.907,263.25l-10.883-2.968H21.12L10.237,263.25A3.715,3.715,0,0,0,7.5,266.834v12.021h7.429v13.62H44.645V266.834A3.714,3.714,0,0,0,41.907,263.25Z" transform="translate(-6.416 -204.348)" fill="#00aaf0"/>
      <path id="Path_981349" data-name="Path 981349" d="M81.868,261.933l-6.055-1.651H65.907l-6.055,1.651a11.129,11.129,0,0,0,22.016,0Z" transform="translate(-51.204 -204.348)" fill="#0096dc"/>
      <path id="Path_981350" data-name="Path 981350" d="M93.19,230.291v4.333a6.191,6.191,0,1,0,12.382,0v-4.333Z" transform="translate(-79.725 -178.691)" fill="#b48764"/>
      <path id="Path_981351" data-name="Path 981351" d="M93.19,234.5a14.732,14.732,0,0,0,12.382,0v-4.208H93.19Z" transform="translate(-79.725 -178.691)" fill="#966d50"/>
      <path id="Path_981352" data-name="Path 981352" d="M66.539,87.763V80.334H44.252v7.429a2.476,2.476,0,0,0,0,4.953,11.143,11.143,0,0,0,22.287,0,2.476,2.476,0,1,0,0-4.953Z" transform="translate(-35.74 -50.401)" fill="#c39772"/>
      <path id="Path_981353" data-name="Path 981353" d="M50.443,92.716V80.334H44.252v7.429a2.476,2.476,0,0,0,0,4.953,11.125,11.125,0,0,0,14.239,10.7A11.142,11.142,0,0,1,50.443,92.716Z" transform="translate(-35.74 -50.401)" fill="#b48764"/>
      <path id="Path_981354" data-name="Path 981354" d="M72.368,44.3a2.418,2.418,0,0,1,2.74-.176V36.349a4.931,4.931,0,0,0-2.535-4.3,3.706,3.706,0,0,0-3.656-3.131H59.012a8.667,8.667,0,0,0-8.667,8.667v6.534a2.451,2.451,0,0,1,1.238-.343,2.4,2.4,0,0,1,.465.045,2.288,2.288,0,0,0,2.715-1.62h0l.3-1.218a1.232,1.232,0,0,1,1.161-.937c2.579-.07,9.895-.444,13.927-2.46l.721,4.325A3.7,3.7,0,0,0,72.368,44.3Z" transform="translate(-43.07 -6.416)" fill="#64463c"/>
      <path id="Path_981355" data-name="Path 981355" d="M57.774,36.349A7.429,7.429,0,0,1,65.2,28.92H59.012a8.667,8.667,0,0,0-8.667,8.667v6.534a2.451,2.451,0,0,1,1.238-.343,2.388,2.388,0,0,1,1.072.252,1.319,1.319,0,0,0,1.884-.932l.528-2.113a1.232,1.232,0,0,1,1.161-.937c.406-.011.935-.03,1.545-.062V36.349Z" transform="translate(-43.071 -6.416)" fill="#553732"/>
      <path id="Path_981356" data-name="Path 981356" d="M7.5,290.94v12.021h7.429v-4.067a6.191,6.191,0,0,0-1.3-3.8L8.466,288.46A3.7,3.7,0,0,0,7.5,290.94Z" transform="translate(-6.416 -228.455)" fill="#0096dc"/>
      <path id="Path_981357" data-name="Path 981357" d="M207.195,402.73l-4.042-1.348a1.238,1.238,0,0,1-.847-1.175v-2.822h-7.429v2.822a1.238,1.238,0,0,1-.847,1.175l-4.042,1.348a3.715,3.715,0,0,0-2.54,3.524v3.513h22.287v-3.513A3.714,3.714,0,0,0,207.195,402.73Z" transform="translate(-160.363 -321.642)" fill="#e6af78"/>
      <path id="Path_981358" data-name="Path 981358" d="M236.905,402.339a12.336,12.336,0,0,0,4.672-.919l-.111-.037a1.238,1.238,0,0,1-.847-1.175v-2.822h-7.429v2.822a1.238,1.238,0,0,1-.847,1.175l-.111.037A12.338,12.338,0,0,0,236.905,402.339Z" transform="translate(-198.677 -321.642)" fill="#d29b6e"/>
      <path id="Path_981359" data-name="Path 981359" d="M198.591,217.438h0a11.143,11.143,0,0,0-11.143,11.143V232.3h22.287v-3.715A11.143,11.143,0,0,0,198.591,217.438Z" transform="translate(-160.363 -167.695)" fill="#64463c"/>
      <path id="Path_981360" data-name="Path 981360" d="M202.306,218.086a11.119,11.119,0,0,0-14.858,10.5V232.3h7.429v-3.715A11.138,11.138,0,0,1,202.306,218.086Z" transform="translate(-160.363 -167.695)" fill="#553732"/>
      <path id="Path_981361" data-name="Path 981361" d="M201.116,283.576h-.085a2.34,2.34,0,0,1-2.34-2.34h0a.962.962,0,0,0-1.284-.906c-9.153,3.246-14.812,3.246-14.812,3.246h-1.187a2.507,2.507,0,0,0-2.5,2.116,2.478,2.478,0,0,0,2.451,2.836h1.238v1.109a8.668,8.668,0,1,0,17.334.129v-1.238h1.238a2.478,2.478,0,0,0,2.451-2.836A2.508,2.508,0,0,0,201.116,283.576Z" transform="translate(-153.033 -221.451)" fill="#f0c087"/>
      <path id="Path_981362" data-name="Path 981362" d="M228.013,200.3l-7.429,3.184-7.429-3.184v7.429l7.429-3.184,7.429,3.184Z" transform="translate(-182.356 -153.033)" fill="#ffdc64"/>
      <path id="Path_981363" data-name="Path 981363" d="M187.546,306.254v-6.708a32.576,32.576,0,0,1-4.953.517h-1.238a2.476,2.476,0,0,0,0,4.953h1.238v.875a8.908,8.908,0,0,0,8.4,9.026,8.672,8.672,0,0,0,2.743-.359A8.667,8.667,0,0,1,187.546,306.254Z" transform="translate(-153.032 -237.939)" fill="#e6af78"/>
      <path id="Path_981364" data-name="Path 981364" d="M207.195,430.387l-2.019-.673a7.423,7.423,0,0,1-13.169,0l-2.019.673a3.715,3.715,0,0,0-2.54,3.524v3.513h22.287v-3.513A3.714,3.714,0,0,0,207.195,430.387Z" transform="translate(-160.363 -349.298)" fill="#ffdc64"/>
      <path id="Path_981365" data-name="Path 981365" d="M114.957,187.636A4.287,4.287,0,0,0,118.275,186a1.084,1.084,0,0,0-1.683-1.365,2.015,2.015,0,0,1-3.269,0A1.084,1.084,0,0,0,111.639,186,4.287,4.287,0,0,0,114.957,187.636Z" transform="translate(-95.301 -139.286)"/>
      <path id="Path_981366" data-name="Path 981366" d="M95.343,144.792a1.084,1.084,0,0,0,1.084-1.084V142.47a1.084,1.084,0,0,0-2.167,0v1.238A1.084,1.084,0,0,0,95.343,144.792Z" transform="translate(-80.639 -102.632)"/>
      <path id="Path_981367" data-name="Path 981367" d="M163.895,144.792a1.084,1.084,0,0,0,1.084-1.084V142.47a1.084,1.084,0,0,0-2.167,0v1.238A1.084,1.084,0,0,0,163.895,144.792Z" transform="translate(-139.286 -102.632)"/>
      <path id="Path_981368" data-name="Path 981368" d="M363.458,230.48a4.286,4.286,0,0,0,3.318-1.639,1.084,1.084,0,1,0-1.683-1.365,2.015,2.015,0,0,1-3.269,0,1.084,1.084,0,1,0-1.683,1.365A4.286,4.286,0,0,0,363.458,230.48Z" transform="translate(-307.895 -175.939)"/>
      <path id="Path_981369" data-name="Path 981369" d="M343.843,187.637a1.084,1.084,0,0,0,1.084-1.084v-1.238a1.084,1.084,0,1,0-2.167,0v1.238A1.084,1.084,0,0,0,343.843,187.637Z" transform="translate(-293.233 -139.286)"/>
      <path id="Path_981370" data-name="Path 981370" d="M412.395,187.637a1.084,1.084,0,0,0,1.084-1.084v-1.238a1.084,1.084,0,1,0-2.167,0v1.238A1.084,1.084,0,0,0,412.395,187.637Z" transform="translate(-351.88 -139.286)"/>
      <path id="Path_981371" data-name="Path 981371" d="M70.964,66.375l-8.49-3.4a1.421,1.421,0,0,1-.131-.064c5.864-1.334,8.641-3.566,8.764-3.667a1.084,1.084,0,0,0,.386-.992,140.391,140.391,0,0,1-1.227-17.181,14.7,14.7,0,1,0-29.407,0c0,2.221-.1,4.938-.265,7.511L38.228,49.77,31.284,46.3c-.02-.01-.041-.017-.061-.026a12.139,12.139,0,0,0,.626-3.031,3.558,3.558,0,0,0,1.273-6.1v-7.21a6.031,6.031,0,0,0-2.657-4.975,4.764,4.764,0,0,0-4.618-3.537H15.941a9.762,9.762,0,0,0-9.751,9.751v5.972a3.558,3.558,0,0,0,1.273,6.1,12.222,12.222,0,0,0,4.918,8.892v3L3.419,57.816A4.769,4.769,0,0,0,0,62.412V74.506A1.084,1.084,0,0,0,1.084,75.59h.154V88.126a1.084,1.084,0,1,0,2.167,0V75.59H7.429V88.126a1.084,1.084,0,1,0,2.167,0V69.44a4.783,4.783,0,0,0-.806-2.662L6.938,64a1.084,1.084,0,1,0-1.8,1.2l1.852,2.779a2.622,2.622,0,0,1,.442,1.459v3.982H2.167V62.412a2.615,2.615,0,0,1,1.875-2.52l3.72-1.116A12.229,12.229,0,0,0,25.451,66.7a3.557,3.557,0,0,0,2.872,1.46h.154v.154A9.755,9.755,0,0,0,33.43,76.8v1.768a.154.154,0,0,1-.106.147l-4.042,1.348A4.792,4.792,0,0,0,26,84.612v3.513a1.084,1.084,0,1,0,2.167,0V84.612a2.627,2.627,0,0,1,1.8-2.5l1.189-.4a8.512,8.512,0,0,0,14.144,0l1.188.4a2.627,2.627,0,0,1,1.8,2.5v3.513a1.084,1.084,0,1,0,2.167,0V84.612a4.792,4.792,0,0,0-3.281-4.552l-4.042-1.348a.154.154,0,0,1-.106-.147V76.8a9.79,9.79,0,0,0,4.588-5.849,10.988,10.988,0,0,0,18.408-4.217l4.137,1.655a2.618,2.618,0,0,1,1.654,2.443V75.9H67.789V74.506a1.084,1.084,0,1,0-2.167,0v13.62a1.084,1.084,0,0,0,2.167,0V78.066h2.785v10.06a1.084,1.084,0,0,0,2.167,0V78.066H72.9a1.084,1.084,0,0,0,1.084-1.084V70.83A4.774,4.774,0,0,0,70.964,66.375Zm-27.938-25.3a12.536,12.536,0,1,1,25.072,0,142.282,142.282,0,0,0,1.161,16.83A23.2,23.2,0,0,1,61.6,60.861V59.136a12.133,12.133,0,0,0,1.645-1.117,12.2,12.2,0,0,0,4.546-9.514c0-6.125-4.43-7-8.714-7.855-2.726-.541-5.544-1.1-7.789-2.9a1.084,1.084,0,0,0-1.761.846c0,.029-.047,2.88-4.132,3.9a1.084,1.084,0,0,0,.526,2.1c3.419-.855,4.813-2.773,5.382-4.213a22.7,22.7,0,0,0,7.352,2.385c4.579.909,6.968,1.577,6.968,5.729a10.032,10.032,0,0,1-3.741,7.828,10.058,10.058,0,0,1-12.173.351,12.245,12.245,0,0,0-2.967-4.573V47.267a1.084,1.084,0,0,0-1.568-.969l-2.34,1.17C42.961,45.211,43.026,43.065,43.026,41.076Zm1.547,7.944v3.922l-3.922-1.961Zm-12.691,0,3.922,1.961-3.922,1.961Zm-2.167,3.091a12.244,12.244,0,0,0-2.793,4.124c0-.1.008-.2.008-.3v-3.8a12.326,12.326,0,0,0,2.785-2.879ZM9.6,42.314a1.084,1.084,0,0,0-1.084-1.084,1.393,1.393,0,0,1,0-2.785h2.476a1.084,1.084,0,0,0,1.028-.741l.995-2.984c2.49-.056,10.21-.406,14.558-2.58A1.084,1.084,0,0,0,26.6,30.2c-4.664,2.332-14.277,2.362-14.373,2.362A1.084,1.084,0,0,0,11.2,33.3l-.991,2.973h-1.7c-.052,0-.1,0-.154,0V31.171a7.592,7.592,0,0,1,7.583-7.583h9.905A2.611,2.611,0,0,1,28.432,25.8a1.084,1.084,0,0,0,.538.774,3.869,3.869,0,0,1,1.984,3.354v6.349c-.051,0-.1,0-.154,0H29.561a1.084,1.084,0,0,0,0,2.167H30.8a1.393,1.393,0,1,1,0,2.785,1.084,1.084,0,0,0-1.084,1.084,10.06,10.06,0,0,1-20.119,0Zm10.06,12.227a12.154,12.154,0,0,0,5.107-1.119v2.512a5.107,5.107,0,0,1-10.214.014c0-.005,0-.01,0-.015v-2.51A12.15,12.15,0,0,0,19.656,54.541ZM9.843,58.152l2.677-.8a7.272,7.272,0,0,0,13.586,1.942,12.185,12.185,0,0,0-.105,1.6v1.029A3.56,3.56,0,0,0,24.763,64.6a10.06,10.06,0,0,1-14.92-6.449Zm32.6,22.617.691.23a6.34,6.34,0,0,1-9.819,0l.691-.23a2.319,2.319,0,0,0,1.588-2.2V77.7a9.7,9.7,0,0,0,5.262,0v.864A2.318,2.318,0,0,0,42.447,80.769ZM38.228,75.9a7.592,7.592,0,0,1-7.583-7.583V67.077a1.084,1.084,0,0,0-1.084-1.084H28.323A1.394,1.394,0,0,1,26.931,64.6a1.377,1.377,0,0,1,.7-1.2,1.077,1.077,0,0,0,.257-.211c2.679-.078,11.363-.582,17.07-3.843a1.084,1.084,0,0,0-1.075-1.882c-5,2.857-12.856,3.429-15.713,3.543v-.126a10.07,10.07,0,0,1,1.716-5.613,1.081,1.081,0,0,0,1.4.392l6.944-3.472,6.944,3.472a1.077,1.077,0,0,0,1.4-.392,10.07,10.07,0,0,1,1.716,5.613v1.582a1.083,1.083,0,0,0,.539.937,1.377,1.377,0,0,1,.7,1.2,1.394,1.394,0,0,1-1.393,1.393H46.9a1.084,1.084,0,0,0-1.084,1.084v1.077c0,.009,0,.019,0,.028v.133A7.592,7.592,0,0,1,38.228,75.9Zm17.334-3.714a8.833,8.833,0,0,1-7.4-4.024,3.55,3.55,0,0,0,2.3-6.245V60.887a12.186,12.186,0,0,0-.07-1.3,12.219,12.219,0,0,0,9.046.512v1.587a3.543,3.543,0,0,0,2.238,3.305l2.337.935A8.817,8.817,0,0,1,55.563,72.184Z"/>
      <path id="Path_981372" data-name="Path 981372" d="M246.651,355.852a1.084,1.084,0,0,0-1.524.159,2.015,2.015,0,0,1-3.269,0,1.084,1.084,0,1,0-1.683,1.365,4.178,4.178,0,0,0,6.636,0A1.084,1.084,0,0,0,246.651,355.852Z" transform="translate(-205.264 -285.902)"/>
      <circle id="Ellipse_11683" data-name="Ellipse 11683" cx="1.084" cy="1.084" r="1.084" transform="translate(33.45 64.76)"/>
      <circle id="Ellipse_11684" data-name="Ellipse 11684" cx="1.084" cy="1.084" r="1.084" transform="translate(40.819 64.76)"/>
    </g>
  </g>
</svg>
