<svg xmlns="http://www.w3.org/2000/svg" xmlns:xlink="http://www.w3.org/1999/xlink" width="108" height="108" viewBox="0 0 108 108">
  <defs>
    <filter id="Path_904820" x="0" y="0" width="108" height="108" filterUnits="userSpaceOnUse">
      <feOffset dy="3" input="SourceAlpha"/>
      <feGaussianBlur stdDeviation="3" result="blur"/>
      <feFlood flood-opacity="0.161"/>
      <feComposite operator="in" in2="blur"/>
      <feComposite in="SourceGraphic"/>
    </filter>
  </defs>
  <g id="Group_1145536" data-name="Group 1145536" transform="translate(-3.177 -710)">
    <g id="Icono" transform="translate(12.177 716)">
      <g transform="matrix(1, 0, 0, 1, -9, -6)" filter="url(#Path_904820)">
        <g id="Path_904820-2" data-name="Path 904820" transform="translate(9 6)" fill="#ecf4fa">
          <path d="M 45 88.5 C 39.12687683105469 88.5 33.43022537231445 87.35007476806641 28.06830024719238 85.08217620849609 C 22.88852500915527 82.89131164550781 18.23629951477051 79.75458526611328 14.2408504486084 75.75914764404297 C 10.24541282653809 71.76370239257812 7.108687400817871 67.11147308349609 4.917825222015381 61.93170166015625 C 2.649924993515015 56.56977462768555 1.5 50.87312316894531 1.5 45 C 1.5 39.12687683105469 2.649924993515015 33.43022537231445 4.917825222015381 28.06830024719238 C 7.108687400817871 22.88852500915527 10.24541282653809 18.23629951477051 14.2408504486084 14.2408504486084 C 18.23629951477051 10.24541282653809 22.88852500915527 7.108687400817871 28.06830024719238 4.917825222015381 C 33.43022537231445 2.649924993515015 39.12687683105469 1.5 45 1.5 C 50.87312316894531 1.5 56.56977462768555 2.649924993515015 61.93170166015625 4.917825222015381 C 67.11147308349609 7.108687400817871 71.76370239257812 10.24541282653809 75.75914764404297 14.2408504486084 C 79.75458526611328 18.23629951477051 82.89131164550781 22.88852500915527 85.08217620849609 28.06830024719238 C 87.35007476806641 33.43022537231445 88.5 39.12687683105469 88.5 45 C 88.5 50.87312316894531 87.35007476806641 56.56977462768555 85.08217620849609 61.93170166015625 C 82.89131164550781 67.11147308349609 79.75458526611328 71.76370239257812 75.75914764404297 75.75914764404297 C 71.76370239257812 79.75458526611328 67.11147308349609 82.89131164550781 61.93170166015625 85.08217620849609 C 56.56977462768555 87.35007476806641 50.87312316894531 88.5 45 88.5 Z" stroke="none"/>
          <path d="M 45 3 C 39.32871246337891 3 33.82865524291992 4.110054016113281 28.65262985229492 6.299339294433594 C 23.65165710449219 8.414573669433594 19.15968322753906 11.44334411621094 15.301513671875 15.301513671875 C 11.44334411621094 19.15968322753906 8.414573669433594 23.65165710449219 6.299339294433594 28.65262985229492 C 4.110054016113281 33.82865524291992 3 39.32871246337891 3 45 C 3 50.67128753662109 4.110054016113281 56.17134475708008 6.299339294433594 61.34737396240234 C 8.414573669433594 66.34834289550781 11.44334411621094 70.84031677246094 15.301513671875 74.698486328125 C 19.15968322753906 78.55665588378906 23.65165710449219 81.58542633056641 28.65262985229492 83.70066070556641 C 33.82865524291992 85.88994598388672 39.32871246337891 87 45 87 C 50.67128753662109 87 56.17134475708008 85.88994598388672 61.34737396240234 83.70066070556641 C 66.34834289550781 81.58542633056641 70.84031677246094 78.55665588378906 74.698486328125 74.698486328125 C 78.55665588378906 70.84031677246094 81.58542633056641 66.34834289550781 83.70066070556641 61.34737396240234 C 85.88994598388672 56.17134475708008 87 50.67128753662109 87 45 C 87 39.32871246337891 85.88994598388672 33.82865524291992 83.70066070556641 28.65262985229492 C 81.58542633056641 23.65165710449219 78.55665588378906 19.15968322753906 74.698486328125 15.301513671875 C 70.84031677246094 11.44334411621094 66.34834289550781 8.414573669433594 61.34737396240234 6.299339294433594 C 56.17134475708008 4.110054016113281 50.67128753662109 3 45 3 M 45 0 C 69.85281372070312 0 90 20.14718627929688 90 45 C 90 69.85281372070312 69.85281372070312 90 45 90 C 20.14718627929688 90 0 69.85281372070312 0 45 C 0 20.14718627929688 20.14718627929688 0 45 0 Z" stroke="none" fill="#2a5673"/>
        </g>
      </g>
    </g>
    <g id="neural-network_14702541" transform="translate(19.597 722.384)">
      <g id="Group_1145421" data-name="Group 1145421" transform="translate(1 17.541)">
        <g id="Group_1145405" data-name="Group 1145405" transform="translate(20.44 4.844)">
          <circle id="Ellipse_11636" data-name="Ellipse 11636" cx="18.549" cy="18.549" r="18.549" fill="#64c4f6"/>
        </g>
        <g id="Group_1145406" data-name="Group 1145406">
          <path id="Path_978845" data-name="Path 978845" d="M59.248,72.657H52.159a1.135,1.135,0,0,1-1.063-.709,21.248,21.248,0,0,0-9.452-9.216A12.556,12.556,0,0,0,35.736,61.2h-.473A15.307,15.307,0,0,1,22.621,54.58,15.209,15.209,0,0,1,1,40.757,15.414,15.414,0,0,1,11.4,26.224a13.141,13.141,0,0,1,7.325-8.507,13.515,13.515,0,0,1,13.942,1.536A11.256,11.256,0,0,1,41.525,15a11.552,11.552,0,0,1,9.806,5.553,11.892,11.892,0,0,1,4.608-.945,11.749,11.749,0,0,1,11.7,11.815v.827a13.761,13.761,0,0,1-1.063,26.229,8.753,8.753,0,0,1-6.616,4.608,1.789,1.789,0,0,0-1.536,1.772v.118c.354,3.544,1.181,5.2,1.772,5.789a1.287,1.287,0,0,1,.236,1.3,1.641,1.641,0,0,1-1.181.591Zm-6.38-2.363h4.372a17.825,17.825,0,0,1-1.181-5.2v-.473A4.289,4.289,0,0,1,59.6,60.488a6.241,6.241,0,0,0,4.962-3.663,1.249,1.249,0,0,1,.827-.709A11.278,11.278,0,0,0,74.253,45.01a11.52,11.52,0,0,0-8.27-10.988,1.088,1.088,0,0,1-.827-1.3,6.781,6.781,0,0,0,.118-1.418,9.456,9.456,0,0,0-9.334-9.452,8.811,8.811,0,0,0-4.49,1.181,1.255,1.255,0,0,1-.945.118,1.21,1.21,0,0,1-.709-.591,9.023,9.023,0,0,0-15.832-.945,1.367,1.367,0,0,1-.827.591,1.342,1.342,0,0,1-.945-.354A11.215,11.215,0,0,0,19.9,19.844a11.333,11.333,0,0,0-6.144,7.562,1.167,1.167,0,0,1-.827.827,13.117,13.117,0,0,0-9.57,12.524,12.884,12.884,0,0,0,12.76,12.878,12.709,12.709,0,0,0,6.262-1.654,1.2,1.2,0,0,1,1.654.473,1.631,1.631,0,0,0,.354.473,13.153,13.153,0,0,0,10.87,5.907h.354a14.986,14.986,0,0,1,7.089,1.772,24.757,24.757,0,0,1,10.161,9.688Z" transform="translate(-1 -15)" fill="#101f2d"/>
        </g>
        <g id="Group_1145407" data-name="Group 1145407" transform="translate(17.591 8.105)">
          <path id="Path_978846" data-name="Path 978846" d="M17.556,30.887a1.135,1.135,0,0,1-1.063-.709,5.787,5.787,0,0,1,2.481-7.68,5.624,5.624,0,0,1,4.372-.354,6.014,6.014,0,0,1,3.308,2.836,1.136,1.136,0,0,1-2.009,1.063,2.924,2.924,0,0,0-1.89-1.654,3.022,3.022,0,0,0-2.481.236,3.36,3.36,0,0,0-1.536,4.49,1.245,1.245,0,0,1-.473,1.536,1.167,1.167,0,0,1-.709.236Z" transform="translate(-15.889 -21.86)" fill="#101f2d"/>
        </g>
        <g id="Group_1145408" data-name="Group 1145408" transform="translate(6.275 21.649)">
          <path id="Path_978847" data-name="Path 978847" d="M11.615,43.693A5.295,5.295,0,0,1,6.771,40.5a5.423,5.423,0,0,1,2.6-7.089,1.164,1.164,0,1,1,.945,2.127A2.987,2.987,0,1,0,12.8,40.975a1.164,1.164,0,0,1,.945,2.127,3.426,3.426,0,0,1-2.127.591Z" transform="translate(-6.311 -33.323)" fill="#101f2d"/>
        </g>
        <g id="Group_1145409" data-name="Group 1145409" transform="translate(26.41 28.164)">
          <path id="Path_978848" data-name="Path 978848" d="M30.379,48.954a8.187,8.187,0,0,1-2.363-.354,7.018,7.018,0,0,1-4.253-8.979,1.2,1.2,0,0,1,2.245.827,4.634,4.634,0,0,0,8.743,3.072A1.2,1.2,0,1,1,37,44.346a6.991,6.991,0,0,1-3.544,4.017A8.875,8.875,0,0,1,30.379,48.954Z" transform="translate(-23.353 -38.837)" fill="#101f2d"/>
        </g>
        <g id="Group_1145410" data-name="Group 1145410" transform="translate(38.252 15.105)">
          <path id="Path_978849" data-name="Path 978849" d="M38.13,37.373a4.772,4.772,0,0,1-3.781-7.68,4.991,4.991,0,0,1,3.19-1.89,1.187,1.187,0,0,1,.236,2.363,3.368,3.368,0,0,0-1.654.945,2.364,2.364,0,0,0,2.245,3.781,1.116,1.116,0,0,1,1.3,1.063c0,.709-.354,1.3-1.063,1.3a.71.71,0,0,1-.473.118Z" transform="translate(-33.376 -27.785)" fill="#101f2d"/>
        </g>
        <g id="Group_1145411" data-name="Group 1145411" transform="translate(31.045 15.671)">
          <path id="Path_978850" data-name="Path 978850" d="M28.486,34.8A1.256,1.256,0,0,1,27.3,33.741,4.787,4.787,0,0,1,28.25,30.2a4.991,4.991,0,0,1,3.19-1.89,4.886,4.886,0,0,1,5.435,4.135,1.187,1.187,0,1,1-2.363.236,2.388,2.388,0,0,0-2.717-2.009,3.368,3.368,0,0,0-1.654.945,2.394,2.394,0,0,0-.473,1.772,1.116,1.116,0,0,1-1.063,1.3l-.118.118Z" transform="translate(-27.276 -28.264)" fill="#101f2d"/>
        </g>
        <g id="Group_1145412" data-name="Group 1145412" transform="translate(48.706 29.227)">
          <path id="Path_978851" data-name="Path 978851" d="M46.922,46.9a4.741,4.741,0,0,1-1.772-.354,4.663,4.663,0,0,1-2.6-6.026,1.2,1.2,0,0,1,2.245.827,2.266,2.266,0,0,0,1.3,2.954,2.3,2.3,0,0,0,1.772,0A2.147,2.147,0,0,0,49.048,43a1.2,1.2,0,1,1,2.245.827,4.847,4.847,0,0,1-2.481,2.6,4.051,4.051,0,0,1-1.89.473Z" transform="translate(-42.224 -39.737)" fill="#101f2d"/>
        </g>
        <g id="Group_1145413" data-name="Group 1145413" transform="translate(45.87 33.554)">
          <path id="Path_978852" data-name="Path 978852" d="M43.222,52.379a.71.71,0,0,1-.473-.118,4.663,4.663,0,0,1-2.6-6.026,4.282,4.282,0,0,1,2.481-2.481,4.608,4.608,0,0,1,3.544,0,1.164,1.164,0,0,1-.945,2.127,2.3,2.3,0,0,0-1.772,0,2.147,2.147,0,0,0-1.181,1.3,2.266,2.266,0,0,0,1.3,2.954,1.084,1.084,0,0,1,.591,1.536c0,.354-.473.709-.945.709Z" transform="translate(-39.824 -43.4)" fill="#101f2d"/>
        </g>
        <g id="Group_1145414" data-name="Group 1145414" transform="translate(61.347 23.859)">
          <path id="Path_978853" data-name="Path 978853" d="M57.385,45.008a1.135,1.135,0,0,1-1.063-.709,1.172,1.172,0,0,1,.591-1.536,2.587,2.587,0,0,0,1.418-1.536,2.674,2.674,0,0,0-.118-2.127,2.635,2.635,0,0,0-3.663-1.3,1.164,1.164,0,1,1-.945-2.127,5.045,5.045,0,0,1,6.735,2.481,5.528,5.528,0,0,1,.236,3.9,5.112,5.112,0,0,1-2.6,2.836,1.285,1.285,0,0,1-.591.118Z" transform="translate(-52.923 -35.194)" fill="#101f2d"/>
        </g>
        <g id="Group_1145415" data-name="Group 1145415" transform="translate(30.719 4.726)">
          <path id="Path_978854" data-name="Path 978854" d="M30.9,25.262a1.135,1.135,0,0,1-1.063-.709,12.034,12.034,0,0,0-2.481-3.544,1.17,1.17,0,1,1,1.654-1.654,12.285,12.285,0,0,1,3.072,4.253,1.172,1.172,0,0,1-.591,1.536A1.065,1.065,0,0,1,30.9,25.262Z" transform="translate(-27 -19)" fill="#101f2d"/>
        </g>
        <g id="Group_1145416" data-name="Group 1145416" transform="translate(9.88 11.044)">
          <path id="Path_978855" data-name="Path 978855" d="M10.588,30.79a1.256,1.256,0,0,1-1.181-1.063,14.438,14.438,0,0,1,.354-4.49,1.161,1.161,0,1,1,2.245.591,12.761,12.761,0,0,0-.236,3.663c.118.591-.354,1.181-1.181,1.3Z" transform="translate(-9.362 -24.347)" fill="#101f2d"/>
        </g>
        <g id="Group_1145417" data-name="Group 1145417" transform="translate(48.705 5.935)">
          <path id="Path_978856" data-name="Path 978856" d="M44.2,25.194a1.256,1.256,0,0,1-1.181-1.063,8.6,8.6,0,0,0-.709-2.481,1.164,1.164,0,1,1,2.127-.945,10.916,10.916,0,0,1,.945,3.19,1.107,1.107,0,0,1-.945,1.3H44.2Z" transform="translate(-42.223 -20.023)" fill="#101f2d"/>
        </g>
        <g id="Group_1145418" data-name="Group 1145418" transform="translate(54.773 16.295)">
          <path id="Path_978857" data-name="Path 978857" d="M48.589,32.7a1.241,1.241,0,0,1-1.063-.591A1.2,1.2,0,0,1,48,30.455a13.857,13.857,0,0,1,10.161-1.181,1.283,1.283,0,0,1,.827,1.418,1.215,1.215,0,0,1-1.418.827,11.568,11.568,0,0,0-8.389.945C49.062,32.7,48.825,32.7,48.589,32.7Z" transform="translate(-47.359 -28.792)" fill="#101f2d"/>
        </g>
        <g id="Group_1145419" data-name="Group 1145419" transform="translate(19.056 22.148)">
          <path id="Path_978858" data-name="Path 978858" d="M20.049,50.823a1.41,1.41,0,0,1-1.063-.591,13.759,13.759,0,0,1-1.3-10.752,11.318,11.318,0,0,1,3.426-5.435,1.173,1.173,0,1,1,1.536,1.772A8.679,8.679,0,0,0,19.93,40.19a11.627,11.627,0,0,0,1.063,8.861,1.2,1.2,0,0,1-.473,1.654A1.222,1.222,0,0,1,20.049,50.823Z" transform="translate(-17.128 -33.745)" fill="#101f2d"/>
        </g>
        <g id="Group_1145420" data-name="Group 1145420" transform="translate(63.474 38.28)">
          <path id="Path_978859" data-name="Path 978859" d="M55.877,52.6a.71.71,0,0,1-.473-.118,1.172,1.172,0,0,1-.591-1.536c.118-.118.118-.354.236-.591a9.419,9.419,0,0,0,.354-1.772,1.181,1.181,0,0,1,2.363,0,8.187,8.187,0,0,1-.354,2.363c-.118.236-.236.591-.354.827-.354.591-.709.827-1.181.827Z" transform="translate(-54.723 -47.4)" fill="#101f2d"/>
        </g>
      </g>
      <g id="Group_1145424" data-name="Group 1145424" transform="translate(33.727 1)">
        <g id="Group_1145422" data-name="Group 1145422">
          <path id="Path_978860" data-name="Path 978860" d="M37.5,5.9a3.9,3.9,0,0,1-7.8,0,3.9,3.9,0,0,1,7.8,0Z" transform="translate(-28.519 -0.819)" fill="#ef6561"/>
          <path id="Path_978861" data-name="Path 978861" d="M33.78,11.279a5.14,5.14,0,1,1,5.08-5.2A5.118,5.118,0,0,1,33.78,11.279Zm0-7.916A2.748,2.748,0,0,0,31.063,6.08a2.717,2.717,0,1,0,5.435,0A2.748,2.748,0,0,0,33.78,3.363Z" transform="translate(-28.7 -1)" fill="#101f2d"/>
        </g>
        <g id="Group_1145423" data-name="Group 1145423" transform="translate(3.899 8.389)">
          <path id="Path_978862" data-name="Path 978862" d="M33.181,18.615A1.116,1.116,0,0,1,32,17.434V9.281a1.181,1.181,0,0,1,2.363,0v8.152A1.184,1.184,0,0,1,33.181,18.615Z" transform="translate(-32 -8.1)" fill="#101f2d"/>
        </g>
      </g>
      <g id="Group_1145430" data-name="Group 1145430" transform="translate(18.014 1.354)">
        <g id="Group_1145425" data-name="Group 1145425" transform="translate(31.428)">
          <path id="Path_978863" data-name="Path 978863" d="M47.08,11.461A5.118,5.118,0,0,1,42,6.38a5.08,5.08,0,1,1,10.161,0A5.042,5.042,0,0,1,47.08,11.461Zm0-7.916a2.674,2.674,0,0,0-2.717,2.717A2.748,2.748,0,0,0,47.08,8.98,2.831,2.831,0,0,0,49.8,6.262,2.748,2.748,0,0,0,47.08,3.545Z" transform="translate(-42 -1.3)" fill="#101f2d"/>
        </g>
        <g id="Group_1145428" data-name="Group 1145428">
          <g id="Group_1145426" data-name="Group 1145426">
            <path id="Path_978864" data-name="Path 978864" d="M20.48,11.461A5.118,5.118,0,0,1,15.4,6.38a5.08,5.08,0,1,1,10.161,0A5.118,5.118,0,0,1,20.48,11.461Zm0-7.916a2.748,2.748,0,0,0-2.717,2.717A2.831,2.831,0,0,0,20.48,8.98,2.748,2.748,0,0,0,23.2,6.262,2.674,2.674,0,0,0,20.48,3.545Z" transform="translate(-15.4 -1.3)" fill="#101f2d"/>
          </g>
          <g id="Group_1145427" data-name="Group 1145427" transform="translate(3.899 8.152)">
            <path id="Path_978865" data-name="Path 978865" d="M26.734,21.433a1.073,1.073,0,0,1-.827-.354l-6.853-6.971a1.073,1.073,0,0,1-.354-.827v-3.9a1.181,1.181,0,0,1,2.363,0v3.426l6.616,6.616a1.142,1.142,0,0,1,0,1.654,1.571,1.571,0,0,1-.945.354Z" transform="translate(-18.7 -8.2)" fill="#101f2d"/>
          </g>
        </g>
        <g id="Group_1145429" data-name="Group 1145429" transform="translate(28.947 8.152)">
          <path id="Path_978866" data-name="Path 978866" d="M41.081,20.96a1.073,1.073,0,0,1-.827-.354,1.142,1.142,0,0,1,0-1.654L46.4,12.808V9.381a1.181,1.181,0,1,1,2.363,0v3.9a1.073,1.073,0,0,1-.354.827l-6.5,6.5A1.276,1.276,0,0,1,41.081,20.96Z" transform="translate(-39.9 -8.2)" fill="#101f2d"/>
        </g>
      </g>
      <g id="Group_1145435" data-name="Group 1145435" transform="translate(4.19 4.544)">
        <g id="Group_1145431" data-name="Group 1145431">
          <path id="Path_978867" data-name="Path 978867" d="M4.6,8.8A3.9,3.9,0,1,0,8.5,4.9,3.934,3.934,0,0,0,4.6,8.8Z" transform="translate(-3.537 -3.837)" fill="#64c4f6"/>
          <path id="Path_978868" data-name="Path 978868" d="M8.78,14.161a5.08,5.08,0,1,1,5.08-5.08A5.118,5.118,0,0,1,8.78,14.161Zm0-7.916A2.748,2.748,0,0,0,6.063,8.962,2.831,2.831,0,0,0,8.78,11.68,2.831,2.831,0,0,0,11.5,8.962,2.748,2.748,0,0,0,8.78,6.245Z" transform="translate(-3.7 -4)" fill="#101f2d"/>
        </g>
        <g id="Group_1145432" data-name="Group 1145432" transform="translate(7.089 7.325)">
          <path id="Path_978869" data-name="Path 978869" d="M16.553,21.424a1.116,1.116,0,0,1-1.181-1.181V17.525l-5.317-5.317a1.17,1.17,0,0,1,1.654-1.654l5.671,5.671a1.073,1.073,0,0,1,.354.827v3.19a1.116,1.116,0,0,1-1.181,1.181Z" transform="translate(-9.7 -10.2)" fill="#101f2d"/>
        </g>
        <g id="Group_1145433" data-name="Group 1145433" transform="translate(59.075)">
          <path id="Path_978870" data-name="Path 978870" d="M62.6,8.8a3.9,3.9,0,1,1-3.9-3.9A3.934,3.934,0,0,1,62.6,8.8Z" transform="translate(-53.5 -3.837)" fill="#64c4f6"/>
          <path id="Path_978871" data-name="Path 978871" d="M58.78,14.161a5.08,5.08,0,1,1,5.08-5.08A5.042,5.042,0,0,1,58.78,14.161Zm0-7.916a2.748,2.748,0,0,0-2.717,2.717,2.717,2.717,0,0,0,5.435,0A2.748,2.748,0,0,0,58.78,6.245Z" transform="translate(-53.7 -4)" fill="#101f2d"/>
        </g>
        <g id="Group_1145434" data-name="Group 1145434" transform="translate(54.113 7.325)">
          <path id="Path_978872" data-name="Path 978872" d="M50.681,21.9A1.116,1.116,0,0,1,49.5,20.715V17.053a1.073,1.073,0,0,1,.354-.827l5.671-5.671a1.17,1.17,0,0,1,1.654,1.654l-5.317,5.317v3.19A1.271,1.271,0,0,1,50.681,21.9Z" transform="translate(-49.5 -10.2)" fill="#101f2d"/>
        </g>
      </g>
      <g id="Group_1145436" data-name="Group 1145436" transform="translate(30.537 62.083)">
        <path id="Path_978873" data-name="Path 978873" d="M30.135,63.688A4.186,4.186,0,0,1,26,59.553V53.882a1.181,1.181,0,0,1,2.363,0v5.671a1.817,1.817,0,0,0,1.772,1.772,1.116,1.116,0,0,1,1.181,1.181A1.184,1.184,0,0,1,30.135,63.688Z" transform="translate(-26 -52.7)" fill="#101f2d"/>
      </g>
      <g id="Group_1145437" data-name="Group 1145437" transform="translate(33.846 67.164)">
        <path id="Path_978874" data-name="Path 978874" d="M36.989,61.545A3.544,3.544,0,1,1,33.444,58,3.48,3.48,0,0,1,36.989,61.545Z" transform="translate(-28.6 -56.819)" fill="#ef6561"/>
        <path id="Path_978875" data-name="Path 978875" d="M33.526,66.452a4.726,4.726,0,1,1,4.726-4.726A4.665,4.665,0,0,1,33.526,66.452Zm0-7.207a2.363,2.363,0,1,0,2.363,2.363A2.3,2.3,0,0,0,33.526,59.245Z" transform="translate(-28.8 -57)" fill="#101f2d"/>
      </g>
      <g id="Group_1145440" data-name="Group 1145440" transform="translate(2.654 57.121)">
        <g id="Group_1145438" data-name="Group 1145438" transform="translate(7.443)">
          <path id="Path_978876" data-name="Path 978876" d="M9.881,64.45a1.181,1.181,0,1,1,0-2.363,1.817,1.817,0,0,0,1.772-1.772V49.681A1.116,1.116,0,0,1,12.835,48.5a1.116,1.116,0,0,1,1.181,1.181V60.315A4.11,4.11,0,0,1,9.881,64.45Z" transform="translate(-8.7 -48.5)" fill="#101f2d"/>
        </g>
        <g id="Group_1145439" data-name="Group 1145439" transform="translate(0 10.043)">
          <path id="Path_978877" data-name="Path 978877" d="M3.3,61.545A3.544,3.544,0,1,0,6.844,58,3.48,3.48,0,0,0,3.3,61.545Z" transform="translate(-2.237 -56.819)" fill="#ef6561"/>
          <path id="Path_978878" data-name="Path 978878" d="M7.126,66.452a4.726,4.726,0,1,1,4.726-4.726,4.74,4.74,0,0,1-4.726,4.726Zm0-7.207a2.363,2.363,0,1,0,2.363,2.363,2.37,2.37,0,0,0-2.363-2.363Z" transform="translate(-2.4 -57)" fill="#101f2d"/>
        </g>
      </g>
      <g id="Group_1145441" data-name="Group 1145441" transform="translate(18.486 64.564)">
        <path id="Path_978879" data-name="Path 978879" d="M16.7,59.244A3.544,3.544,0,1,0,20.244,55.7,3.555,3.555,0,0,0,16.7,59.244Z" transform="translate(-15.637 -54.637)" fill="#64c4f6"/>
        <path id="Path_978880" data-name="Path 978880" d="M20.526,64.252a4.726,4.726,0,1,1,4.726-4.726A4.74,4.74,0,0,1,20.526,64.252Zm0-7.207a2.363,2.363,0,1,0,2.363,2.363A2.37,2.37,0,0,0,20.526,57.045Z" transform="translate(-15.8 -54.8)" fill="#101f2d"/>
      </g>
      <g id="Group_1145442" data-name="Group 1145442" transform="translate(22.149 55.821)">
        <path id="Path_978881" data-name="Path 978881" d="M20.081,57.8A1.116,1.116,0,0,1,18.9,56.616V48.581a1.181,1.181,0,1,1,2.363,0v8.034A1.271,1.271,0,0,1,20.081,57.8Z" transform="translate(-18.9 -47.4)" fill="#101f2d"/>
      </g>
    </g>
  </g>
</svg>
