<svg xmlns="http://www.w3.org/2000/svg" width="36.349" height="36.349" viewBox="0 0 36.349 36.349">
  <g id="sperm_5903971" transform="translate(0 0)">
    <path id="Path_978688" data-name="Path 978688" d="M354.313,323.05a.532.532,0,0,0-.532.532v.706a4.024,4.024,0,0,1-.036.526H349a4.047,4.047,0,0,1-.036-.526v-.706a.532.532,0,1,0-1.065,0v.706a5.088,5.088,0,0,0,.106,1.036,4.244,4.244,0,0,0,2.141,2.963,4.244,4.244,0,0,0-2.141,2.963,5.086,5.086,0,0,0-.106,1.035v.706a.532.532,0,1,0,1.065,0v-.706a4.03,4.03,0,0,1,.036-.526h4.744a4.04,4.04,0,0,1,.036.526v.706a.532.532,0,1,0,1.065,0v-.706a5.086,5.086,0,0,0-.106-1.036,4.244,4.244,0,0,0-2.141-2.963,4.244,4.244,0,0,0,2.141-2.963,5.092,5.092,0,0,0,.106-1.036v-.706A.532.532,0,0,0,354.313,323.05Zm-.866,7.645H349.3a2.941,2.941,0,0,1,1.366-1.477l.708-.34.708.34A2.941,2.941,0,0,1,353.447,330.695Zm-1.366-3.338-.708.34-.708-.34a2.941,2.941,0,0,1-1.366-1.477h4.148A2.942,2.942,0,0,1,352.081,327.357Z" transform="translate(-323.201 -300.116)" fill="#5830e2"/>
    <path id="Path_978689" data-name="Path 978689" d="M36.349,18.174A18.134,18.134,0,0,0,26.779,2.163,3.212,3.212,0,0,0,26.018.95,3.263,3.263,0,0,0,22.112.43,18.194,18.194,0,0,0,6.228,4.477a.532.532,0,1,0,.7.8A17.1,17.1,0,0,1,18.174,1.065a17.277,17.277,0,0,1,2.752.222L19.438,2.4c-.419-.033-.843-.051-1.264-.051A15.817,15.817,0,0,0,7.014,29.389a.9.9,0,0,1-.485.233l-.6.085c-.113.016-.225.038-.334.065A17.109,17.109,0,0,1,5.228,6.988a.532.532,0,0,0-.805-.7,18.173,18.173,0,0,0,.138,23.922,3.533,3.533,0,0,0-1.614,2.479.1.1,0,0,1-.029.057l-.682.682a1.709,1.709,0,1,0,2.416,2.416l.682-.682a3.541,3.541,0,0,0,1-1.99.1.1,0,0,1,.086-.085l.6-.085a4.266,4.266,0,0,0,.51-.105,18.2,18.2,0,0,0,16.687,2.422A8.174,8.174,0,0,0,35.322,24.208a18.121,18.121,0,0,0,1.027-6.034Zm-1.065,0a17.089,17.089,0,0,1-.715,4.91A8.25,8.25,0,0,0,33.53,22,15.822,15.822,0,0,0,26.586,4.772a3.235,3.235,0,0,0,.369-1.285A17.068,17.068,0,0,1,35.284,18.174ZM23.721,1.068a2.176,2.176,0,0,1,1.746,3.484l-1.951,2.6a1.82,1.82,0,0,1-2.743.195L19.62,6.195a1.82,1.82,0,0,1,.195-2.743l2.6-1.951a2.171,2.171,0,0,1,1.305-.433Zm-4.733,6,.91.91-.86.86a1.173,1.173,0,0,0-.33.66,2.466,2.466,0,0,1-2.082,2.081l-.6.085a1.98,1.98,0,0,0-1.672,1.672A3.274,3.274,0,0,1,11.595,16.1l-.6.085a1.172,1.172,0,0,0-.989.989,2.469,2.469,0,0,1-.694,1.388l-.682.682a.644.644,0,0,1-.91-.91l.682-.682a1.173,1.173,0,0,0,.33-.66,2.466,2.466,0,0,1,2.082-2.081l.6-.085a1.98,1.98,0,0,0,1.672-1.672,3.274,3.274,0,0,1,2.764-2.764l.6-.085a1.171,1.171,0,0,0,.989-.989,2.469,2.469,0,0,1,.694-1.388ZM3.417,18.174A14.774,14.774,0,0,1,18.174,3.417l.261,0a2.881,2.881,0,0,0-.1,2.8l-.961.961a3.541,3.541,0,0,0-1,1.99.1.1,0,0,1-.086.085l-.6.085a4.345,4.345,0,0,0-3.668,3.667.91.91,0,0,1-.768.768l-.6.085A3.536,3.536,0,0,0,7.68,16.844a.1.1,0,0,1-.029.057l-.682.682A1.709,1.709,0,0,0,8.177,20.5h0A1.7,1.7,0,0,0,9.385,20l.682-.682a3.541,3.541,0,0,0,1-1.99.1.1,0,0,1,.086-.085l.6-.085a4.345,4.345,0,0,0,3.668-3.668.91.91,0,0,1,.768-.768l.6-.085A3.536,3.536,0,0,0,19.763,9.65a.1.1,0,0,1,.029-.057l.961-.961a2.882,2.882,0,0,0,1.308.314q.1,0,.205-.007a2.884,2.884,0,0,0,2.1-1.147l1.609-2.146A14.781,14.781,0,0,1,32.6,21.3,8.174,8.174,0,0,0,21.3,32.6a14.838,14.838,0,0,1-3.126.332,14.677,14.677,0,0,1-7.9-2.292,4.275,4.275,0,0,0,.407-1.3.91.91,0,0,1,.768-.768l.6-.085A3.536,3.536,0,0,0,15.029,25.5a.1.1,0,0,1,.029-.057l.961-.961a2.881,2.881,0,0,0,1.308.314q.1,0,.205-.007a2.883,2.883,0,0,0,2.1-1.147l1.951-2.6A3.245,3.245,0,0,0,17.044,16.5l-.352.264a.532.532,0,0,0,.639.852l.352-.264A2.18,2.18,0,0,1,20.734,20.4L18.783,23a1.82,1.82,0,0,1-2.743.2l-1.154-1.154a1.82,1.82,0,0,1,.195-2.743l.242-.181a.532.532,0,1,0-.639-.852l-.242.181a2.884,2.884,0,0,0-.84,3.616l-.961.961a3.541,3.541,0,0,0-1,1.99.1.1,0,0,1-.086.085l-.6.085A4.348,4.348,0,0,0,7.42,28.28a14.6,14.6,0,0,1-4-10.106ZM6.861,31.951l-.6.085a1.171,1.171,0,0,0-.989.989,2.469,2.469,0,0,1-.694,1.388L3.9,35.1a.644.644,0,1,1-.91-.91l.682-.682a1.173,1.173,0,0,0,.33-.66,2.465,2.465,0,0,1,2.082-2.081l.6-.085a1.981,1.981,0,0,0,1.5-1.1.531.531,0,0,0,.034-.075,1.947,1.947,0,0,0,.142-.5,3.274,3.274,0,0,1,2.764-2.764l.6-.085a1.172,1.172,0,0,0,.989-.989,2.469,2.469,0,0,1,.694-1.388l.86-.86.91.91-.86.86a1.173,1.173,0,0,0-.33.66,2.466,2.466,0,0,1-2.082,2.081l-.6.085a1.98,1.98,0,0,0-1.672,1.672,3.232,3.232,0,0,1-.5,1.32l0,0-.006.009a3.271,3.271,0,0,1-2.255,1.432Zm11.313,3.333A16.956,16.956,0,0,1,8.668,32.4a4.376,4.376,0,0,0,1.017-.873A15.86,15.86,0,0,0,22,33.53a8.249,8.249,0,0,0,1.084,1.038,17.086,17.086,0,0,1-4.909.715Zm10,0a7.112,7.112,0,1,1,7.112-7.112A7.12,7.12,0,0,1,28.171,35.284Z" transform="translate(0 0)" fill="#5830e2"/>
    <path id="Path_978690" data-name="Path 978690" d="M366.176,169.085a1.709,1.709,0,1,0-1.709-1.709A1.71,1.71,0,0,0,366.176,169.085Zm0-2.352a.644.644,0,1,1-.644.644A.644.644,0,0,1,366.176,166.733Z" transform="translate(-338.592 -153.907)" fill="#5830e2"/>
    <path id="Path_978691" data-name="Path 978691" d="M217.076,397.6a1.709,1.709,0,1,0,1.709,1.709A1.711,1.711,0,0,0,217.076,397.6Zm0,2.352a.644.644,0,1,1,.644-.644A.644.644,0,0,1,217.076,399.952Z" transform="translate(-200.077 -369.373)" fill="#5830e2"/>
    <path id="Path_978692" data-name="Path 978692" d="M117.676,119.385a1.709,1.709,0,1,0-1.709-1.709A1.71,1.71,0,0,0,117.676,119.385Zm0-2.352a.644.644,0,1,1-.644.644A.644.644,0,0,1,117.676,117.033Z" transform="translate(-107.734 -107.735)" fill="#5830e2"/>
  </g>
</svg>
