<svg xmlns="http://www.w3.org/2000/svg" xmlns:xlink="http://www.w3.org/1999/xlink" width="108" height="108" viewBox="0 0 108 108">
  <defs>
    <filter id="Path_979310" x="0" y="0" width="108" height="108" filterUnits="userSpaceOnUse">
      <feOffset dy="3" input="SourceAlpha"/>
      <feGaussianBlur stdDeviation="3" result="blur"/>
      <feFlood flood-opacity="0.161"/>
      <feComposite operator="in" in2="blur"/>
      <feComposite in="SourceGraphic"/>
    </filter>
  </defs>
  <g id="Group_1145538" data-name="Group 1145538" transform="translate(-6.177 -3438)">
    <g transform="matrix(1, 0, 0, 1, 6.18, 3438)" filter="url(#Path_979310)">
      <g id="Path_979310-2" data-name="Path 979310" transform="translate(9 6)" fill="#ecf4fa">
        <path d="M 45 88.5 C 39.12687683105469 88.5 33.43022537231445 87.35007476806641 28.06830024719238 85.08217620849609 C 22.88852500915527 82.89131164550781 18.23629951477051 79.75458526611328 14.2408504486084 75.75914764404297 C 10.24541282653809 71.76370239257812 7.108687400817871 67.11147308349609 4.917825222015381 61.93170166015625 C 2.649924993515015 56.56977462768555 1.5 50.87312316894531 1.5 45 C 1.5 39.12687683105469 2.649924993515015 33.43022537231445 4.917825222015381 28.06830024719238 C 7.108687400817871 22.88852500915527 10.24541282653809 18.23629951477051 14.2408504486084 14.2408504486084 C 18.23629951477051 10.24541282653809 22.88852500915527 7.108687400817871 28.06830024719238 4.917825222015381 C 33.43022537231445 2.649924993515015 39.12687683105469 1.5 45 1.5 C 50.87312316894531 1.5 56.56977462768555 2.649924993515015 61.93170166015625 4.917825222015381 C 67.11147308349609 7.108687400817871 71.76370239257812 10.24541282653809 75.75914764404297 14.2408504486084 C 79.75458526611328 18.23629951477051 82.89131164550781 22.88852500915527 85.08217620849609 28.06830024719238 C 87.35007476806641 33.43022537231445 88.5 39.12687683105469 88.5 45 C 88.5 50.87312316894531 87.35007476806641 56.56977462768555 85.08217620849609 61.93170166015625 C 82.89131164550781 67.11147308349609 79.75458526611328 71.76370239257812 75.75914764404297 75.75914764404297 C 71.76370239257812 79.75458526611328 67.11147308349609 82.89131164550781 61.93170166015625 85.08217620849609 C 56.56977462768555 87.35007476806641 50.87312316894531 88.5 45 88.5 Z" stroke="none"/>
        <path d="M 45 3 C 39.32871246337891 3 33.82865524291992 4.110054016113281 28.65262985229492 6.299339294433594 C 23.65165710449219 8.414573669433594 19.15968322753906 11.44334411621094 15.301513671875 15.301513671875 C 11.44334411621094 19.15968322753906 8.414573669433594 23.65165710449219 6.299339294433594 28.65262985229492 C 4.110054016113281 33.82865524291992 3 39.32871246337891 3 45 C 3 50.67128753662109 4.110054016113281 56.17134475708008 6.299339294433594 61.34737396240234 C 8.414573669433594 66.34834289550781 11.44334411621094 70.84031677246094 15.301513671875 74.698486328125 C 19.15968322753906 78.55665588378906 23.65165710449219 81.58542633056641 28.65262985229492 83.70066070556641 C 33.82865524291992 85.88994598388672 39.32871246337891 87 45 87 C 50.67128753662109 87 56.17134475708008 85.88994598388672 61.34737396240234 83.70066070556641 C 66.34834289550781 81.58542633056641 70.84031677246094 78.55665588378906 74.698486328125 74.698486328125 C 78.55665588378906 70.84031677246094 81.58542633056641 66.34834289550781 83.70066070556641 61.34737396240234 C 85.88994598388672 56.17134475708008 87 50.67128753662109 87 45 C 87 39.32871246337891 85.88994598388672 33.82865524291992 83.70066070556641 28.65262985229492 C 81.58542633056641 23.65165710449219 78.55665588378906 19.15968322753906 74.698486328125 15.301513671875 C 70.84031677246094 11.44334411621094 66.34834289550781 8.414573669433594 61.34737396240234 6.299339294433594 C 56.17134475708008 4.110054016113281 50.67128753662109 3 45 3 M 45 0 C 69.85281372070312 0 90 20.14718627929688 90 45 C 90 69.85281372070312 69.85281372070312 90 45 90 C 20.14718627929688 90 0 69.85281372070312 0 45 C 0 20.14718627929688 20.14718627929688 0 45 0 Z" stroke="none" fill="#2a5673"/>
      </g>
    </g>
    <g id="artificial-intelligence_917265" transform="translate(24.605 3453.428)">
      <g id="Group_1145443" data-name="Group 1145443" transform="translate(1.39 1.39)">
        <path id="Path_978882" data-name="Path 978882" d="M35.327,10A10.44,10.44,0,0,0,24.89,20.443c0,.047,0,.093,0,.139,0,0-10.441,4.675-10.441,10.443a10.394,10.394,0,0,0,1.673,5.667,10.444,10.444,0,0,0-.5,18.773A10.443,10.443,0,0,0,20.2,69.591c1.065,4.974,6.81,8.774,13.738,8.774a16.617,16.617,0,0,0,10.247-3.377l-.088-60.206A10.424,10.424,0,0,0,35.327,10Z" transform="translate(-10 -10)" fill="#ef717a"/>
        <path id="Path_978883" data-name="Path 978883" d="M289.6,46.2a10.442,10.442,0,0,0-6.126-9.51,10.394,10.394,0,0,0,1.673-5.667c0-5.767-10.437-10.535-10.437-10.582a10.548,10.548,0,0,0-19.38-5.662c-.028-.046.059,60.23.088,60.206a16.285,16.285,0,0,0,10.247,3.377c6.929,0,12.674-3.8,13.739-8.774a10.443,10.443,0,0,0,4.576-14.126A10.44,10.44,0,0,0,289.6,46.2ZM265.447,20.739a3.481,3.481,0,1,1-3.479,3.481A3.48,3.48,0,0,1,265.447,20.739Zm-4.453,20.8a3.479,3.479,0,1,1,3.479,3.481A3.48,3.48,0,0,1,260.993,41.537Zm5.566,27.429a3.481,3.481,0,1,1,3.479-3.481A3.48,3.48,0,0,1,266.56,68.966Zm7.793-11.974a3.481,3.481,0,1,1,3.479-3.481A3.48,3.48,0,0,1,274.353,56.992Z" transform="translate(-221.24 -10)" fill="#ef717a"/>
      </g>
      <g id="Group_1145444" data-name="Group 1145444" transform="translate(41.143 12.129)">
        <ellipse id="Ellipse_11637" data-name="Ellipse 11637" cx="3.479" cy="3.481" rx="3.479" ry="3.481" transform="translate(0.974)" fill="#f6931e"/>
        <ellipse id="Ellipse_11638" data-name="Ellipse 11638" cx="3.479" cy="3.481" rx="3.479" ry="3.481" transform="translate(9.881 29.291)" fill="#f6931e"/>
        <ellipse id="Ellipse_11639" data-name="Ellipse 11639" cx="3.479" cy="3.481" rx="3.479" ry="3.481" transform="translate(0 17.316)" fill="#f6931e"/>
        <ellipse id="Ellipse_11640" data-name="Ellipse 11640" cx="3.479" cy="3.481" rx="3.479" ry="3.481" transform="translate(2.088 41.265)" fill="#f6931e"/>
      </g>
      <path id="Path_978884" data-name="Path 978884" d="M71.144,37.591A11.866,11.866,0,0,0,65.53,27.525a11.8,11.8,0,0,0,1.16-5.111c0-5.123-6.326-9.275-10.468-11.443A11.967,11.967,0,0,0,35.474,3.882,11.774,11.774,0,0,0,26.717,0a11.846,11.846,0,0,0-11.8,11.05c0,.011,0,.022,0,.033-.25.127-.552.286-.922.486A34.418,34.418,0,0,0,10.248,13.9c-3.845,2.784-5.795,5.647-5.795,8.51a11.8,11.8,0,0,0,1.16,5.111,11.833,11.833,0,0,0-.375,19.891,11.832,11.832,0,0,0,5.15,14.5c1.546,5.387,7.7,9.231,14.937,9.231a18.325,18.325,0,0,0,10.239-3.038,17.9,17.9,0,0,0,10.254,3.038c7.239,0,13.391-3.844,14.937-9.231a11.832,11.832,0,0,0,5.15-14.5A11.8,11.8,0,0,0,71.144,37.591Zm-58.2,23.1a1.39,1.39,0,0,0-.733-.95,9.018,9.018,0,0,1-4.579-5.409,8.264,8.264,0,0,0,3.717.873h0a8.49,8.49,0,0,0,5.29-1.892,1.39,1.39,0,1,0-1.763-2.149,5.563,5.563,0,0,1-7.6-.506,8.934,8.934,0,0,1,.958-3.164,1.389,1.389,0,0,0-.591-1.871A9.054,9.054,0,0,1,8.09,29.346a1.389,1.389,0,0,0,.592-2.02,9.02,9.02,0,0,1-1.45-4.912c0-3.294,4.727-6.582,7.883-8.3a11.891,11.891,0,0,0,4.625,7.277,1.432,1.432,0,0,0,1.942-.3,1.39,1.39,0,0,0-.3-1.942A9.055,9.055,0,0,1,26.717,2.779,9.016,9.016,0,0,1,34.1,6.6v.14c-.006.916-.008,2.949-.005,7.543h-7.73a1.39,1.39,0,0,0-.983,2.372,5.581,5.581,0,0,1,0,7.881,5.7,5.7,0,0,1-7.875,0A1.39,1.39,0,1,0,15.538,26.5a8.5,8.5,0,0,0,.672.6l-3.518,3.613a4.877,4.877,0,0,0,.007,6.88,4.955,4.955,0,0,0,6.886,0,1.39,1.39,0,0,0-1.965-1.965,2.161,2.161,0,0,1-2.955,0,2.1,2.1,0,0,1,0-2.958l.013-.013,4.055-4.164c.047-.048,1.454.357,1.63.38A8.351,8.351,0,0,0,29,17.059h5.088c0,3.554.009,8.255.018,14.478h-3.4v-.351a1.39,1.39,0,0,0-2.779,0v3.481a1.39,1.39,0,1,0,2.779,0v-.351h3.406c0,.657.01,6.844.014,9.2H30.239a4.866,4.866,0,0,0-8.016-1.776A1.39,1.39,0,0,0,24.189,43.7c1.845-1.845,4.869,1.042,2.955,2.958a1.39,1.39,0,0,0,0,1.965,1.413,1.413,0,0,0,1.965,0,4.84,4.84,0,0,0,1.3-2.333h3.729c.005,3.2.011,6.23.016,8.92h-10.9a1.389,1.389,0,0,0-.983.407,4.877,4.877,0,0,0,0,6.887,4.984,4.984,0,0,0,6.886,0,1.39,1.39,0,0,0-1.965-1.965,2.16,2.16,0,0,1-2.955,0,2.1,2.1,0,0,1-.317-2.551H34.155c.005,2.373.019,7.26.022,7.7a15.426,15.426,0,0,1-8.851,2.674C19.2,68.365,13.882,65.065,12.946,60.69ZM63.49,45.623a1.389,1.389,0,0,0-.591,1.871A9.054,9.054,0,0,1,58.931,59.74a1.389,1.389,0,0,0-.733.95c-.937,4.375-6.259,7.675-12.38,7.675a15.265,15.265,0,0,1-8.858-2.672l-.011-7.7h5.022a4.868,4.868,0,1,0,.163-2.779H36.945l-.013-8.92H49.837a4.87,4.87,0,1,0,0-2.779H36.928l-.013-9.2h3.042a4.87,4.87,0,1,0,0-2.779H36.911L36.89,17.059h4.059a4.873,4.873,0,1,0-.034-2.779H36.886l-.011-7.7a9.165,9.165,0,0,1,16.6,5.247,1.488,1.488,0,0,0,.963,1.346c5.932,3,9.474,6.458,9.474,9.236,0,3.46-2.267,7.533-6.06,7.655a1.39,1.39,0,0,0,.043,2.779h.043a9.138,9.138,0,0,0,6.119-2.964,9.052,9.052,0,0,1-.566,15.74ZM46.71,54.784a2.091,2.091,0,1,1-2.09,2.091A2.093,2.093,0,0,1,46.71,54.784Zm5.7-9.883a2.09,2.09,0,1,1,2.09,2.091A2.093,2.093,0,0,1,52.414,44.9ZM42.533,32.927a2.09,2.09,0,1,1,2.09,2.091A2.093,2.093,0,0,1,42.533,32.927Zm.974-17.317A2.09,2.09,0,1,1,45.6,17.7,2.093,2.093,0,0,1,43.507,15.61Z"/>
      <path id="Path_978885" data-name="Path 978885" d="M123.1,331.5a1.387,1.387,0,0,0-1.5,1.266,1.391,1.391,0,0,0,1.266,1.5c.04,0,.079,0,.119,0A1.391,1.391,0,0,0,124.367,333s0,0,0,0A1.39,1.39,0,0,0,123.1,331.5Z" transform="translate(-104.696 -285.431)"/>
      <path id="Path_978886" data-name="Path 978886" d="M372.682,202.769a1.39,1.39,0,0,0-1.931,2,0,0,0,0,0,0,0,1.39,1.39,0,0,0,1.931-2Z" transform="translate(-318.87 -174.259)"/>
    </g>
  </g>
</svg>
