<svg xmlns="http://www.w3.org/2000/svg" xmlns:xlink="http://www.w3.org/1999/xlink" width="108" height="108" viewBox="0 0 108 108">
  <defs>
    <filter id="Path_904820" x="0" y="0" width="108" height="108" filterUnits="userSpaceOnUse">
      <feOffset dy="3" input="SourceAlpha"/>
      <feGaussianBlur stdDeviation="3" result="blur"/>
      <feFlood flood-opacity="0.161"/>
      <feComposite operator="in" in2="blur"/>
      <feComposite in="SourceGraphic"/>
    </filter>
  </defs>
  <g id="Group_1145617" data-name="Group 1145617" transform="translate(-201 -1334)">
    <g id="Icono" transform="translate(-414.101 -3666)">
      <g transform="matrix(1, 0, 0, 1, 615.1, 5000)" filter="url(#Path_904820)">
        <g id="Path_904820-2" data-name="Path 904820" transform="translate(9 6)" fill="#ebf0f7">
          <path d="M 45 88.5 C 39.12687683105469 88.5 33.43022537231445 87.35007476806641 28.06830024719238 85.08217620849609 C 22.88852500915527 82.89131164550781 18.23629951477051 79.75458526611328 14.2408504486084 75.75914764404297 C 10.24541282653809 71.76370239257812 7.108687400817871 67.11147308349609 4.917825222015381 61.93170166015625 C 2.649924993515015 56.56977462768555 1.5 50.87312316894531 1.5 45 C 1.5 39.12687683105469 2.649924993515015 33.43022537231445 4.917825222015381 28.06830024719238 C 7.108687400817871 22.88852500915527 10.24541282653809 18.23629951477051 14.2408504486084 14.2408504486084 C 18.23629951477051 10.24541282653809 22.88852500915527 7.108687400817871 28.06830024719238 4.917825222015381 C 33.43022537231445 2.649924993515015 39.12687683105469 1.5 45 1.5 C 50.87312316894531 1.5 56.56977462768555 2.649924993515015 61.93170166015625 4.917825222015381 C 67.11147308349609 7.108687400817871 71.76370239257812 10.24541282653809 75.75914764404297 14.2408504486084 C 79.75458526611328 18.23629951477051 82.89131164550781 22.88852500915527 85.08217620849609 28.06830024719238 C 87.35007476806641 33.43022537231445 88.5 39.12687683105469 88.5 45 C 88.5 50.87312316894531 87.35007476806641 56.56977462768555 85.08217620849609 61.93170166015625 C 82.89131164550781 67.11147308349609 79.75458526611328 71.76370239257812 75.75914764404297 75.75914764404297 C 71.76370239257812 79.75458526611328 67.11147308349609 82.89131164550781 61.93170166015625 85.08217620849609 C 56.56977462768555 87.35007476806641 50.87312316894531 88.5 45 88.5 Z" stroke="none"/>
          <path d="M 45 3 C 39.32871246337891 3 33.82865524291992 4.110054016113281 28.65262985229492 6.299339294433594 C 23.65165710449219 8.414573669433594 19.15968322753906 11.44334411621094 15.301513671875 15.301513671875 C 11.44334411621094 19.15968322753906 8.414573669433594 23.65165710449219 6.299339294433594 28.65262985229492 C 4.110054016113281 33.82865524291992 3 39.32871246337891 3 45 C 3 50.67128753662109 4.110054016113281 56.17134475708008 6.299339294433594 61.34737396240234 C 8.414573669433594 66.34834289550781 11.44334411621094 70.84031677246094 15.301513671875 74.698486328125 C 19.15968322753906 78.55665588378906 23.65165710449219 81.58542633056641 28.65262985229492 83.70066070556641 C 33.82865524291992 85.88994598388672 39.32871246337891 87 45 87 C 50.67128753662109 87 56.17134475708008 85.88994598388672 61.34737396240234 83.70066070556641 C 66.34834289550781 81.58542633056641 70.84031677246094 78.55665588378906 74.698486328125 74.698486328125 C 78.55665588378906 70.84031677246094 81.58542633056641 66.34834289550781 83.70066070556641 61.34737396240234 C 85.88994598388672 56.17134475708008 87 50.67128753662109 87 45 C 87 39.32871246337891 85.88994598388672 33.82865524291992 83.70066070556641 28.65262985229492 C 81.58542633056641 23.65165710449219 78.55665588378906 19.15968322753906 74.698486328125 15.301513671875 C 70.84031677246094 11.44334411621094 66.34834289550781 8.414573669433594 61.34737396240234 6.299339294433594 C 56.17134475708008 4.110054016113281 50.67128753662109 3 45 3 M 45 0 C 69.85281372070312 0 90 20.14718627929688 90 45 C 90 69.85281372070312 69.85281372070312 90 45 90 C 20.14718627929688 90 0 69.85281372070312 0 45 C 0 20.14718627929688 20.14718627929688 0 45 0 Z" stroke="none" fill="#6e008a"/>
        </g>
      </g>
    </g>
    <g id="abuelos" transform="translate(217.549 1349.5)">
      <g id="Group_1145615" data-name="Group 1145615" transform="translate(1.04 1.042)">
        <path id="Path_981373" data-name="Path 981373" d="M278.055,219.958v22.98a2.08,2.08,0,0,1-2.08,2.08h-8.361L257.2,241.1l-1.592.743-6.791,3.173h-4.177l-.612-25.16c0-7.238,4.979-13.339,11.58-15.633a17.459,17.459,0,0,1,5.738-.974,16.707,16.707,0,0,1,16.707,16.707Z" transform="translate(-211.228 -176.104)" fill="#ff6e80"/>
        <path id="Path_981374" data-name="Path 981374" d="M255.61,210.272v37.621l-6.791,3.173h-4.177l-.612-25.16C244.03,218.668,249.009,212.566,255.61,210.272Z" transform="translate(-211.228 -182.151)" fill="#f9475e"/>
        <path id="Path_981375" data-name="Path 981375" d="M48.362,125.21c0,10.214-6.49,22.252-18.344,23.84a20.012,20.012,0,0,1-2.678.176C13.765,149.227,7.5,136.167,7.5,125.21a19.84,19.84,0,0,1,19.371-19.834c.155,0,.312-.006.469-.006C38.3,105.371,48.362,114.253,48.362,125.21Z" transform="translate(-7.5 -91.798)" fill="#f0f0f2"/>
        <path id="Path_981376" data-name="Path 981376" d="M30.017,149.086a20.015,20.015,0,0,1-2.678.176C13.765,149.262,7.5,136.2,7.5,125.246a19.84,19.84,0,0,1,19.371-19.834c-2.484,3.522-13.5,21.044-.094,37.823a17.8,17.8,0,0,1,3.241,5.851Z" transform="translate(-7.5 -91.833)" fill="#dedee0"/>
        <path id="Path_981377" data-name="Path 981377" d="M79.819,307.185v15.654H54.75a2.08,2.08,0,0,1-2.08-2.08V307.185a13.625,13.625,0,0,1,.115-1.774l2.535-1.994-.191-4.023h0a13.577,13.577,0,0,1,11.116-5.782c3.748,0,7.141.617,9.6,2.624S79.819,301.634,79.819,307.185Z" transform="translate(-46.406 -253.933)" fill="#fcf5af"/>
        <path id="Path_981378" data-name="Path 981378" d="M62.118,336.105a2.838,2.838,0,0,0,1.125,2.161H54.75a2.08,2.08,0,0,1-2.08-2.08V322.612a13.554,13.554,0,0,1,5.747-11.09l6.229,7.876s-2.528,1.79-2.528,7.6Z" transform="translate(-46.406 -269.36)" fill="#fce3a0"/>
        <path id="Path_981379" data-name="Path 981379" d="M94.914,183.585a15.662,15.662,0,0,1-15.328,15.658,15.941,15.941,0,0,1-1.933-.078l-5.988-4.206-3.894-7.121L72.8,176.511A37.633,37.633,0,0,0,77.82,172.5a2.08,2.08,0,0,1,2.861,0c2.274,2.159,7.031,6.114,12.56,7.475a2.087,2.087,0,0,1,1.567,1.794A15.674,15.674,0,0,1,94.914,183.585Z" transform="translate(-59.412 -149.128)" fill="#ffddcf"/>
        <path id="Path_981380" data-name="Path 981380" d="M51.679,227.607a15.674,15.674,0,0,1-13.959-17.4,2.084,2.084,0,0,1,1.567-1.788,24.632,24.632,0,0,0,7.544-3.466A27.911,27.911,0,0,0,51.679,227.607Z" transform="translate(-33.439 -177.569)" fill="#ffcbbe"/>
        <path id="Path_981381" data-name="Path 981381" d="M281.862,31.728a16.706,16.706,0,0,1-16.707,16.707,17.043,17.043,0,0,1-1.713-.086,16.61,16.61,0,0,1-7.626-2.767l-2.67-6.073-4.678-6.985c-.012-.263-.019-.528-.019-.8a16.7,16.7,0,0,1,16.443-16.7c.087,0,.175,0,.262,0a16.707,16.707,0,0,1,16.707,16.707Z" transform="translate(-215.035 -13.977)" fill="#ffddcf"/>
        <path id="Path_981382" data-name="Path 981382" d="M263.443,48.366a16.707,16.707,0,0,1,1.451-33.324c-2.152,3.145-10.883,17.608-1.451,33.324Z" transform="translate(-215.035 -13.995)" fill="#ffcbbe"/>
        <path id="Path_981383" data-name="Path 981383" d="M420.117,19.288a3.133,3.133,0,0,1-6.251-.308q0-.079,0-.157a.914.914,0,0,0-.751-.953,4.185,4.185,0,0,1-3.376-3.444.889.889,0,0,0-.694-.732,3.133,3.133,0,1,1,3.393-4.562.9.9,0,0,0,.9.482,4.181,4.181,0,0,1,4.492,5.441.9.9,0,0,0,.485,1.086A3.134,3.134,0,0,1,420.117,19.288Z" transform="translate(-351.218 -7.495)" fill="#f0f0f2"/>
        <path id="Path_981384" data-name="Path 981384" d="M233.4,19.288a3.133,3.133,0,0,0,6.251-.308q0-.079,0-.157a.913.913,0,0,1,.751-.953,4.185,4.185,0,0,0,3.376-3.444.889.889,0,0,1,.694-.732,3.133,3.133,0,1,0-3.393-4.562.9.9,0,0,1-.9.482,4.181,4.181,0,0,0-4.492,5.441.9.9,0,0,1-.485,1.086A3.134,3.134,0,0,0,233.4,19.288Z" transform="translate(-202.06 -7.495)" fill="#dedee0"/>
        <path id="Path_981385" data-name="Path 981385" d="M283.12,241.5v10.451a2.08,2.08,0,0,1-2.08,2.08H259.626l-4.866-4.7.5-14.1,6.444-7.306,5.109-2.077c.215-.011.431-.015.649-.015A15.662,15.662,0,0,1,283.12,241.5Z" transform="translate(-220.47 -195.562)" fill="#827f97"/>
        <path id="Path_981386" data-name="Path 981386" d="M249.042,254.13H235.46a2.081,2.081,0,0,1-2.08-2.08V241.6a15.66,15.66,0,0,1,15.013-15.647c-.137.186-11.08,15.289.649,28.178Z" transform="translate(-202.055 -195.657)" fill="#68647d"/>
        <path id="Path_981387" data-name="Path 981387" d="M312.7,408.418v5.221H300.4l-4.026-4.447,1.464-8.419a9.4,9.4,0,0,1,14.861,7.645Z" transform="translate(-256.31 -344.725)" fill="#bed6f1"/>
        <path id="Path_981388" data-name="Path 981388" d="M287.03,405.192s-1.975,1.611-1.975,5.672v5.851h-6.5v-5.221a9.4,9.4,0,0,1,6.379-8.9Z" transform="translate(-240.97 -347.801)" fill="#93bce8"/>
        <path id="Path_981389" data-name="Path 981389" d="M310.312,301.494a11.486,11.486,0,0,1-11.485,11.487q-.468,0-.926-.037l-4.005-2.473-2.715-11.377,2.489-1.965a19.759,19.759,0,0,0,4.27-1.438,2.072,2.072,0,0,1,1.775,0,19.119,19.119,0,0,0,8.3,1.839,2.079,2.079,0,0,1,2.07,1.67A11.589,11.589,0,0,1,310.312,301.494Z" transform="translate(-251.84 -255.552)" fill="#ffddcf"/>
        <path id="Path_981390" data-name="Path 981390" d="M274.059,323.117a11.494,11.494,0,0,1-10.329-13.744,2.077,2.077,0,0,1,2.07-1.67,17.688,17.688,0,0,0,4.027-.4A19.593,19.593,0,0,0,274.059,323.117Z" transform="translate(-227.998 -265.725)" fill="#ffcbbe"/>
      </g>
      <g id="Group_1145616" data-name="Group 1145616" transform="translate(0 0.003)">
        <path id="Path_981391" data-name="Path 981391" d="M68.691,8.8a5.224,5.224,0,0,0-5.547-6.679,4.164,4.164,0,0,0-7.017-.364,17.877,17.877,0,0,0-9.932,0,4.165,4.165,0,0,0-7.017.364A5.224,5.224,0,0,0,33.63,8.8a4.168,4.168,0,0,0-.03,7.442q-.092.639-.138,1.284a22.364,22.364,0,0,0-12.582-3.947A20.9,20.9,0,0,0,0,34.455c0,6.925,2.365,13.779,6.336,18.4A12.424,12.424,0,0,0,6.267,54.3l0,13.565a3.124,3.124,0,0,0,3.12,3.12l56.4.008a3.124,3.124,0,0,0,3.12-3.12V64.369a1.04,1.04,0,1,0-2.08,0v3.507a1.041,1.041,0,0,1-1.04,1.04l-7.321,0V64.735a10.435,10.435,0,0,0-.877-4.18h4.021a3.124,3.124,0,0,0,3.12-3.12V46.985A16.664,16.664,0,0,0,59.224,34.6a17.751,17.751,0,0,0,2.327-1.428A15.566,15.566,0,0,1,66.827,44.9V59.515a1.04,1.04,0,1,0,2.08,0V44.9A17.637,17.637,0,0,0,63.181,31.84a17.722,17.722,0,0,0,5.542-15.6A4.168,4.168,0,0,0,68.691,8.8Zm-35.275,3.94a2.106,2.106,0,0,1,1.2-2.106A1.939,1.939,0,0,0,35.647,8.28a3.142,3.142,0,0,1,3.372-4.087,1.936,1.936,0,0,0,1.949-1.017,2.093,2.093,0,1,1,2.268,3.047A1.939,1.939,0,0,0,41.727,7.81a3.133,3.133,0,0,1-2.533,2.585,1.964,1.964,0,0,0-1.605,2.028,2.069,2.069,0,0,1-.62,1.594,2.1,2.1,0,0,1-3.553-1.28Zm0,56.172H9.384a1.041,1.041,0,0,1-1.04-1.04V54.294a12.46,12.46,0,0,1,1.628-6.178A16.5,16.5,0,0,0,24.4,51.829a1.04,1.04,0,1,0-.439-2.033,14.651,14.651,0,0,1-17.605-16,1.05,1.05,0,0,1,.783-.9c5.738-1.412,10.625-5.45,13.027-7.729a1.041,1.041,0,0,1,1.43,0c2.4,2.281,7.29,6.318,13.027,7.73a1.053,1.053,0,0,1,.783.905,14.579,14.579,0,0,1,.09,2.152,16.636,16.636,0,0,0-4.118,9.716,14.654,14.654,0,0,1-3.181,2.488,1.04,1.04,0,0,0,1.043,1.8,16.738,16.738,0,0,0,2.087-1.433v8.906a3.125,3.125,0,0,0,2.088,2.944v8.529Zm4.177-4.173v4.174h-2.1V60.556H38.47A10.418,10.418,0,0,0,37.59,64.735Zm18.8,4.179-16.715,0V64.735a8.4,8.4,0,0,1,3.008-6.42,12.56,12.56,0,0,0,10.7,0,8.382,8.382,0,0,1,3.007,6.42ZM39.941,53.594a10.417,10.417,0,0,1-2.15-8.7,1.037,1.037,0,0,1,1.032-.837,20.143,20.143,0,0,0,8.764-1.938,1.027,1.027,0,0,1,.883,0,20.121,20.121,0,0,0,8.764,1.939,1.03,1.03,0,0,1,1.032.837,10.447,10.447,0,0,1-18.323,8.7Zm22.709-6.609V57.435a1.041,1.041,0,0,1-1.04,1.04H56.377a10.4,10.4,0,0,0-1.116-1.263A12.523,12.523,0,0,0,60.3,44.482a3.117,3.117,0,0,0-3.109-2.5,17.93,17.93,0,0,1-7.833-1.738,3.1,3.1,0,0,0-2.666,0,17.958,17.958,0,0,1-7.833,1.738,3.119,3.119,0,0,0-3.109,2.5A12.525,12.525,0,0,0,40.8,57.214a10.441,10.441,0,0,0-1.114,1.262H34.445a1.041,1.041,0,0,1-1.04-1.04V46.985a14.622,14.622,0,0,1,29.244,0ZM57.4,33.164A16.673,16.673,0,0,0,41.92,31.438,15.646,15.646,0,0,1,38,27.292a1.04,1.04,0,0,0-1.747,1.129,17.706,17.706,0,0,0,3.568,4.021,16.765,16.765,0,0,0-2.305,1.573c-.013-.151-.028-.3-.045-.449a3.143,3.143,0,0,0-2.352-2.685c-5.272-1.3-9.839-5.08-12.094-7.22a3.123,3.123,0,0,0-4.292,0C16.479,25.8,11.912,29.584,6.64,30.881a3.14,3.14,0,0,0-2.352,2.677A16.473,16.473,0,0,0,8.444,46.617a14.5,14.5,0,0,0-1.585,3.545A27.407,27.407,0,0,1,2.08,34.455a18.821,18.821,0,0,1,18.8-18.8,20.365,20.365,0,0,1,12.586,4.452,17.785,17.785,0,0,0,.645,3.62,1.04,1.04,0,1,0,2-.577,15.817,15.817,0,0,1-.473-6.455,4.172,4.172,0,0,0,4.034-4.275,5.216,5.216,0,0,0,4.094-4.184A4.2,4.2,0,0,0,46.952,3.7a15.784,15.784,0,0,1,8.416,0,4.2,4.2,0,0,0,3.188,4.537,5.216,5.216,0,0,0,4.094,4.184A4.172,4.172,0,0,0,66.686,16.7,15.738,15.738,0,0,1,57.4,33.164ZM68.9,12.736a2.1,2.1,0,0,1-3.553,1.28,2.069,2.069,0,0,1-.62-1.594,1.964,1.964,0,0,0-1.605-2.028A3.133,3.133,0,0,1,60.593,7.81a1.939,1.939,0,0,0-1.509-1.586,2.093,2.093,0,0,1,.358-4.14,2.084,2.084,0,0,1,1.91,1.093A1.934,1.934,0,0,0,63.3,4.193,3.142,3.142,0,0,1,66.673,8.28a1.939,1.939,0,0,0,1.033,2.351,2.106,2.106,0,0,1,1.2,2.106Z" transform="translate(0 -0.003)"/>
        <path id="Path_981392" data-name="Path 981392" d="M329.145,62.595a1.779,1.779,0,0,1,1.979,0,3.853,3.853,0,0,0,4.286,0,1.779,1.779,0,0,1,1.979,0,1.04,1.04,0,1,0,1.154-1.731,3.853,3.853,0,0,0-4.286,0,1.779,1.779,0,0,1-1.979,0,3.853,3.853,0,0,0-4.286,0,1.04,1.04,0,1,0,1.154,1.731Z" transform="translate(-282.106 -51.863)"/>
        <path id="Path_981393" data-name="Path 981393" d="M330.382,89.548a4.792,4.792,0,0,0-5.331,0,2.717,2.717,0,0,1-3.023,0,4.792,4.792,0,0,0-5.331,0,1.04,1.04,0,1,0,1.154,1.731,2.718,2.718,0,0,1,3.023,0,4.792,4.792,0,0,0,5.331,0,2.718,2.718,0,0,1,3.023,0,1.04,1.04,0,0,0,1.154-1.731Z" transform="translate(-272.38 -76.433)"/>
        <path id="Path_981394" data-name="Path 981394" d="M299.628,128.087a1.04,1.04,0,0,0-1.04,1.04v1.664a1.04,1.04,0,0,0,2.08,0v-1.664A1.04,1.04,0,0,0,299.628,128.087Z" transform="translate(-257.18 -110.325)"/>
        <path id="Path_981395" data-name="Path 981395" d="M424.525,128.087a1.04,1.04,0,0,0-1.04,1.04v1.664a1.04,1.04,0,0,0,2.08,0v-1.664A1.04,1.04,0,0,0,424.525,128.087Z" transform="translate(-364.757 -110.325)"/>
        <path id="Path_981396" data-name="Path 981396" d="M341.366,147.241a1.04,1.04,0,0,0-1.04,1.04.965.965,0,0,1-1.929,0,1.04,1.04,0,1,0-2.08,0,.965.965,0,1,1-1.929,0,1.04,1.04,0,1,0-2.08,0,3.042,3.042,0,0,0,5.049,2.289,3.042,3.042,0,0,0,5.049-2.289A1.04,1.04,0,0,0,341.366,147.241Z" transform="translate(-286.223 -126.822)"/>
        <path id="Path_981397" data-name="Path 981397" d="M287.413,331.994a1.04,1.04,0,0,0-1.04,1.04V334.7a1.04,1.04,0,0,0,2.08,0v-1.664A1.04,1.04,0,0,0,287.413,331.994Z" transform="translate(-246.659 -285.954)"/>
        <path id="Path_981398" data-name="Path 981398" d="M392.311,335.738a1.04,1.04,0,0,0,1.04-1.04v-1.664a1.04,1.04,0,0,0-2.08,0V334.7A1.04,1.04,0,0,0,392.311,335.738Z" transform="translate(-337.01 -285.954)"/>
        <path id="Path_981399" data-name="Path 981399" d="M328.747,345.359a1.04,1.04,0,0,0-1.568-1.367,1.986,1.986,0,0,1-3,0,1.04,1.04,0,1,0-1.568,1.367A4.068,4.068,0,0,0,328.747,345.359Z" transform="translate(-277.652 -295.981)"/>
        <path id="Path_981400" data-name="Path 981400" d="M70.717,240.932a2.952,2.952,0,0,0-2.949,2.949,1.04,1.04,0,0,0,2.08,0,.869.869,0,1,1,1.738,0,1.04,1.04,0,0,0,2.08,0A2.952,2.952,0,0,0,70.717,240.932Z" transform="translate(-58.37 -207.52)"/>
        <path id="Path_981401" data-name="Path 981401" d="M192.893,243.881a.869.869,0,0,1,1.738,0,1.04,1.04,0,0,0,2.08,0,2.949,2.949,0,1,0-5.9,0,1.04,1.04,0,1,0,2.08,0Z" transform="translate(-164.351 -207.52)"/>
        <path id="Path_981402" data-name="Path 981402" d="M134.226,271.042a1.04,1.04,0,0,0-1.467.1,1.642,1.642,0,0,1-2.482,0,1.04,1.04,0,1,0-1.568,1.367,3.725,3.725,0,0,0,5.618,0A1.04,1.04,0,0,0,134.226,271.042Z" transform="translate(-110.639 -233.235)"/>
      </g>
    </g>
  </g>
</svg>
