<svg xmlns="http://www.w3.org/2000/svg" xmlns:xlink="http://www.w3.org/1999/xlink" width="108" height="108" viewBox="0 0 108 108">
  <defs>
    <filter id="Path_904820" x="0" y="0" width="108" height="108" filterUnits="userSpaceOnUse">
      <feOffset dy="3" input="SourceAlpha"/>
      <feGaussianBlur stdDeviation="3" result="blur"/>
      <feFlood flood-opacity="0.161"/>
      <feComposite operator="in" in2="blur"/>
      <feComposite in="SourceGraphic"/>
    </filter>
  </defs>
  <g id="Group_1145619" data-name="Group 1145619" transform="translate(-202 -4196)">
    <g id="Icono" transform="translate(-413.101 -804)">
      <g transform="matrix(1, 0, 0, 1, 615.1, 5000)" filter="url(#Path_904820)">
        <g id="Path_904820-2" data-name="Path 904820" transform="translate(9 6)" fill="#ebf0f7">
          <path d="M 45 88.5 C 39.12687683105469 88.5 33.43022537231445 87.35007476806641 28.06830024719238 85.08217620849609 C 22.88852500915527 82.89131164550781 18.23629951477051 79.75458526611328 14.2408504486084 75.75914764404297 C 10.24541282653809 71.76370239257812 7.108687400817871 67.11147308349609 4.917825222015381 61.93170166015625 C 2.649924993515015 56.56977462768555 1.5 50.87312316894531 1.5 45 C 1.5 39.12687683105469 2.649924993515015 33.43022537231445 4.917825222015381 28.06830024719238 C 7.108687400817871 22.88852500915527 10.24541282653809 18.23629951477051 14.2408504486084 14.2408504486084 C 18.23629951477051 10.24541282653809 22.88852500915527 7.108687400817871 28.06830024719238 4.917825222015381 C 33.43022537231445 2.649924993515015 39.12687683105469 1.5 45 1.5 C 50.87312316894531 1.5 56.56977462768555 2.649924993515015 61.93170166015625 4.917825222015381 C 67.11147308349609 7.108687400817871 71.76370239257812 10.24541282653809 75.75914764404297 14.2408504486084 C 79.75458526611328 18.23629951477051 82.89131164550781 22.88852500915527 85.08217620849609 28.06830024719238 C 87.35007476806641 33.43022537231445 88.5 39.12687683105469 88.5 45 C 88.5 50.87312316894531 87.35007476806641 56.56977462768555 85.08217620849609 61.93170166015625 C 82.89131164550781 67.11147308349609 79.75458526611328 71.76370239257812 75.75914764404297 75.75914764404297 C 71.76370239257812 79.75458526611328 67.11147308349609 82.89131164550781 61.93170166015625 85.08217620849609 C 56.56977462768555 87.35007476806641 50.87312316894531 88.5 45 88.5 Z" stroke="none"/>
          <path d="M 45 3 C 39.32871246337891 3 33.82865524291992 4.110054016113281 28.65262985229492 6.299339294433594 C 23.65165710449219 8.414573669433594 19.15968322753906 11.44334411621094 15.301513671875 15.301513671875 C 11.44334411621094 19.15968322753906 8.414573669433594 23.65165710449219 6.299339294433594 28.65262985229492 C 4.110054016113281 33.82865524291992 3 39.32871246337891 3 45 C 3 50.67128753662109 4.110054016113281 56.17134475708008 6.299339294433594 61.34737396240234 C 8.414573669433594 66.34834289550781 11.44334411621094 70.84031677246094 15.301513671875 74.698486328125 C 19.15968322753906 78.55665588378906 23.65165710449219 81.58542633056641 28.65262985229492 83.70066070556641 C 33.82865524291992 85.88994598388672 39.32871246337891 87 45 87 C 50.67128753662109 87 56.17134475708008 85.88994598388672 61.34737396240234 83.70066070556641 C 66.34834289550781 81.58542633056641 70.84031677246094 78.55665588378906 74.698486328125 74.698486328125 C 78.55665588378906 70.84031677246094 81.58542633056641 66.34834289550781 83.70066070556641 61.34737396240234 C 85.88994598388672 56.17134475708008 87 50.67128753662109 87 45 C 87 39.32871246337891 85.88994598388672 33.82865524291992 83.70066070556641 28.65262985229492 C 81.58542633056641 23.65165710449219 78.55665588378906 19.15968322753906 74.698486328125 15.301513671875 C 70.84031677246094 11.44334411621094 66.34834289550781 8.414573669433594 61.34737396240234 6.299339294433594 C 56.17134475708008 4.110054016113281 50.67128753662109 3 45 3 M 45 0 C 69.85281372070312 0 90 20.14718627929688 90 45 C 90 69.85281372070312 69.85281372070312 90 45 90 C 20.14718627929688 90 0 69.85281372070312 0 45 C 0 20.14718627929688 20.14718627929688 0 45 0 Z" stroke="none" fill="#6e008a"/>
        </g>
      </g>
    </g>
    <g id="adenovirus_13156079" transform="translate(201.381 4195.498)">
      <g id="Group_1145618" data-name="Group 1145618" transform="translate(36.868 31.353)">
        <path id="Path_981403" data-name="Path 981403" d="M48,85.057h6.059L48,71.424Z" transform="translate(-48 -56.031)" fill="#aaeef9"/>
        <path id="Path_981404" data-name="Path 981404" d="M72.32,69.821a4.392,4.392,0,0,1-1.857,0L63.2,84.343H76.384a1.109,1.109,0,0,1,0,2.219h-14.2l-1.516,4.155,1.372.888a1.11,1.11,0,0,1,1.534-.329l7.818,5.059,7.835-5.07a1.109,1.109,0,0,1,1.534.329l1.336-.865L80.355,85.89Z" transform="translate(-53.64 -55.318)" fill="#aaeef9"/>
        <path id="Path_981405" data-name="Path 981405" d="M52.772,100l.74.479a1.11,1.11,0,0,1,.328,1.534l1.4.906L56.306,100Z" transform="translate(-50.125 -68.756)" fill="#aaeef9"/>
        <path id="Path_981406" data-name="Path 981406" d="M99.49,64H86.629a4.436,4.436,0,0,1-1.381,2.232l7.015,14.03Z" transform="translate(-64.586 -52.726)" fill="#aaeef9"/>
        <path id="Path_981407" data-name="Path 981407" d="M103.842,100.352l.543-.352h-3.54l1.055,2.93,1.614-1.044a1.11,1.11,0,0,1,.329-1.534Z" transform="translate(-71.531 -68.756)" fill="#aaeef9"/>
        <path id="Path_981408" data-name="Path 981408" d="M61.939,64H49.078l7.228,16.262,7.015-14.03A4.433,4.433,0,0,1,61.939,64Z" transform="translate(-48.48 -52.726)" fill="#aaeef9"/>
        <path id="Path_981409" data-name="Path 981409" d="M107.137,85.057V71.424l-6.059,13.633Z" transform="translate(-71.634 -56.031)" fill="#aaeef9"/>
        <path id="Path_981410" data-name="Path 981410" d="M68.986,43.676v2.953a1.109,1.109,0,0,1-2.219,0V43.676L52.772,52.731H63.584a4.431,4.431,0,0,1,8.584,0H82.98Z" transform="translate(-50.125 -43.676)" fill="#aaeef9"/>
      </g>
      <path id="Path_981411" data-name="Path 981411" d="M74.589,42.111l4.258-2.839a4.455,4.455,0,1,0-1.233-1.844L73.471,40.19,55.729,28.71V24.73a4.438,4.438,0,1,0-2.219,0v3.98L35.768,40.19l-4.143-2.762a4.453,4.453,0,1,0-1.233,1.845l4.258,2.838V60.894l-4.258,2.839a4.455,4.455,0,1,0,1.233,1.844l4.143-2.762,3.282,2.124a1.11,1.11,0,0,0,1.206-1.863l-.741-.479h3.533l-1.065,2.919L40,70.946a4.451,4.451,0,0,0-1.041.018,4.439,4.439,0,0,0,.6,8.835,4.51,4.51,0,0,0,.621-.043,4.438,4.438,0,0,0,2.063-7.936c-.053-.039-.108-.073-.163-.11l1.807-4.955L45.41,62.6h14.2a1.109,1.109,0,0,0,0-2.219H46.429L53.69,45.856a4.394,4.394,0,0,0,1.858,0l8.035,16.069,1.742,4.839L67.1,71.7c-.059.04-.12.078-.178.121a4.438,4.438,0,0,0,2.064,7.936,4.522,4.522,0,0,0,.621.043,4.439,4.439,0,0,0,.6-8.835,4.478,4.478,0,0,0-1.022-.02l-1.949-5.417L66.183,62.6h3.54l-.543.352a1.109,1.109,0,0,0,1.2,1.863l3.086-2,4.143,2.762a4.453,4.453,0,1,0,1.233-1.845l-4.258-2.838ZM38.237,77.13a2.219,2.219,0,1,1,1.643.427A2.221,2.221,0,0,1,38.237,77.13Zm33.13-3.108a2.218,2.218,0,1,1-1.775-.881,2.254,2.254,0,0,1,.311.022A2.2,2.2,0,0,1,71.368,74.022ZM58.911,40.408a4.431,4.431,0,0,0-8.584,0H39.515L53.51,31.353v2.953a1.109,1.109,0,1,0,2.219,0V31.353l13.995,9.055ZM52.4,41.517a2.219,2.219,0,1,1,2.219,2.219A2.221,2.221,0,0,1,52.4,41.517Zm19.97,18.861H66.312l6.059-13.633ZM81.8,33.751a2.219,2.219,0,1,1-2.219,2.219A2.221,2.221,0,0,1,81.8,33.751ZM54.619,18.219A2.219,2.219,0,1,1,52.4,20.438,2.221,2.221,0,0,1,54.619,18.219ZM25.219,35.97a2.219,2.219,0,1,1,2.219,2.219A2.221,2.221,0,0,1,25.219,35.97Zm2.219,33.284a2.219,2.219,0,1,1,2.219-2.219A2.221,2.221,0,0,1,27.438,69.254Zm9.43-8.876V46.745l6.059,13.633Zm7.825-1.489L37.466,42.627H50.328a4.436,4.436,0,0,0,1.381,2.232ZM58.911,42.627H71.773L64.546,58.889l-7.015-14.03A4.436,4.436,0,0,0,58.911,42.627ZM84.02,67.035A2.219,2.219,0,1,1,81.8,64.816,2.221,2.221,0,0,1,84.02,67.035Z" transform="translate(0)" fill="#00648c"/>
      <path id="Path_981412" data-name="Path 981412" d="M80.185,108.336l-7.835,5.07-7.818-5.059a1.11,1.11,0,0,0-1.206,1.863l7.915,5.121v3.98a4.438,4.438,0,1,0,2.219,0v-3.98L81.39,110.2a1.109,1.109,0,1,0-1.205-1.863ZM72.35,125.821a2.219,2.219,0,1,1,2.219-2.219A2.221,2.221,0,0,1,72.35,125.821Z" transform="translate(-17.73 -41.035)" fill="#00648c"/>
      <circle id="Ellipse_11685" data-name="Ellipse 11685" cx="2.172" cy="2.172" r="2.172" transform="translate(52.546 18.607)" fill="#aaeef9"/>
      <circle id="Ellipse_11686" data-name="Ellipse 11686" cx="2.172" cy="2.172" r="2.172" transform="translate(52.546 39.463)" fill="#aaeef9"/>
      <path id="Path_981413" data-name="Path 981413" d="M98.652,39.959a1.109,1.109,0,0,0,1.564-.121L101.36,38.5A4.4,4.4,0,1,0,99.6,37.149L98.53,38.4a1.108,1.108,0,0,0,.121,1.563ZM101.34,33.1a2.22,2.22,0,1,1-.427,1.644A2.216,2.216,0,0,1,101.34,33.1Z" transform="translate(-33.513 -6.235)" fill="#00648c"/>
      <path id="Path_981414" data-name="Path 981414" d="M103.882,37.99a2.22,2.22,0,1,0-.86-1.464,2.221,2.221,0,0,0,.86,1.464Z" transform="translate(-35.622 -8.016)" fill="#aaeef9"/>
      <path id="Path_981415" data-name="Path 981415" d="M52.435,37.99a2.22,2.22,0,1,0-3.109-.433A2.2,2.2,0,0,0,52.435,37.99Z" transform="translate(-11.522 -8.016)" fill="#aaeef9"/>
      <path id="Path_981416" data-name="Path 981416" d="M52.857,31.764a4.455,4.455,0,1,0-1.79,6.738l1.144,1.336A1.109,1.109,0,1,0,53.9,38.4l-1.067-1.248a4.429,4.429,0,0,0,.028-5.384Zm-5.311,4.013a2.219,2.219,0,1,1,3.109.433A2.209,2.209,0,0,1,47.546,35.777Z" transform="translate(-9.741 -6.235)" fill="#00648c"/>
      <circle id="Ellipse_11687" data-name="Ellipse 11687" cx="2.172" cy="2.172" r="2.172" transform="translate(52.546 80.306)" fill="#aaeef9"/>
      <ellipse id="Ellipse_11688" data-name="Ellipse 11688" cx="2.172" cy="2.607" rx="2.172" ry="2.607" transform="translate(79.485 33.38)" fill="#aaeef9"/>
      <ellipse id="Ellipse_11689" data-name="Ellipse 11689" cx="2.172" cy="2.607" rx="2.172" ry="2.607" transform="translate(25.607 33.38)" fill="#aaeef9"/>
      <circle id="Ellipse_11690" data-name="Ellipse 11690" cx="2.172" cy="2.172" r="2.172" transform="translate(79.485 64.664)" fill="#aaeef9"/>
      <circle id="Ellipse_11691" data-name="Ellipse 11691" cx="2.172" cy="2.172" r="2.172" transform="translate(25.607 64.664)" fill="#aaeef9"/>
      <path id="Path_981417" data-name="Path 981417" d="M103.882,119.454a2.22,2.22,0,1,0,1.644-.427,2.256,2.256,0,0,0-.311-.022A2.2,2.2,0,0,0,103.882,119.454Z" transform="translate(-35.622 -45.865)" fill="#aaeef9"/>
      <path id="Path_981418" data-name="Path 981418" d="M52.87,122.562a2.219,2.219,0,1,0-1.464.86A2.206,2.206,0,0,0,52.87,122.562Z" transform="translate(-11.525 -45.865)" fill="#aaeef9"/>
    </g>
  </g>
</svg>
