<svg xmlns="http://www.w3.org/2000/svg" xmlns:xlink="http://www.w3.org/1999/xlink" width="108" height="108" viewBox="0 0 108 108">
  <defs>
    <filter id="Path_904820" x="0" y="0" width="108" height="108" filterUnits="userSpaceOnUse">
      <feOffset dy="3" input="SourceAlpha"/>
      <feGaussianBlur stdDeviation="3" result="blur"/>
      <feFlood flood-opacity="0.161"/>
      <feComposite operator="in" in2="blur"/>
      <feComposite in="SourceGraphic"/>
    </filter>
  </defs>
  <g id="Group_1145660" data-name="Group 1145660" transform="translate(-621 -2446)">
    <g id="Icono" transform="translate(630 2452)">
      <g transform="matrix(1, 0, 0, 1, -9, -6)" filter="url(#Path_904820)">
        <g id="Path_904820-2" data-name="Path 904820" transform="translate(9 6)" fill="#ebf0f7">
          <path d="M 45 88.5 C 39.12687683105469 88.5 33.43022537231445 87.35007476806641 28.06830024719238 85.08217620849609 C 22.88852500915527 82.89131164550781 18.23629951477051 79.75458526611328 14.2408504486084 75.75914764404297 C 10.24541282653809 71.76370239257812 7.108687400817871 67.11147308349609 4.917825222015381 61.93170166015625 C 2.649924993515015 56.56977462768555 1.5 50.87312316894531 1.5 45 C 1.5 39.12687683105469 2.649924993515015 33.43022537231445 4.917825222015381 28.06830024719238 C 7.108687400817871 22.88852500915527 10.24541282653809 18.23629951477051 14.2408504486084 14.2408504486084 C 18.23629951477051 10.24541282653809 22.88852500915527 7.108687400817871 28.06830024719238 4.917825222015381 C 33.43022537231445 2.649924993515015 39.12687683105469 1.5 45 1.5 C 50.87312316894531 1.5 56.56977462768555 2.649924993515015 61.93170166015625 4.917825222015381 C 67.11147308349609 7.108687400817871 71.76370239257812 10.24541282653809 75.75914764404297 14.2408504486084 C 79.75458526611328 18.23629951477051 82.89131164550781 22.88852500915527 85.08217620849609 28.06830024719238 C 87.35007476806641 33.43022537231445 88.5 39.12687683105469 88.5 45 C 88.5 50.87312316894531 87.35007476806641 56.56977462768555 85.08217620849609 61.93170166015625 C 82.89131164550781 67.11147308349609 79.75458526611328 71.76370239257812 75.75914764404297 75.75914764404297 C 71.76370239257812 79.75458526611328 67.11147308349609 82.89131164550781 61.93170166015625 85.08217620849609 C 56.56977462768555 87.35007476806641 50.87312316894531 88.5 45 88.5 Z" stroke="none"/>
          <path d="M 45 3 C 39.32871246337891 3 33.82865524291992 4.110054016113281 28.65262985229492 6.299339294433594 C 23.65165710449219 8.414573669433594 19.15968322753906 11.44334411621094 15.301513671875 15.301513671875 C 11.44334411621094 19.15968322753906 8.414573669433594 23.65165710449219 6.299339294433594 28.65262985229492 C 4.110054016113281 33.82865524291992 3 39.32871246337891 3 45 C 3 50.67128753662109 4.110054016113281 56.17134475708008 6.299339294433594 61.34737396240234 C 8.414573669433594 66.34834289550781 11.44334411621094 70.84031677246094 15.301513671875 74.698486328125 C 19.15968322753906 78.55665588378906 23.65165710449219 81.58542633056641 28.65262985229492 83.70066070556641 C 33.82865524291992 85.88994598388672 39.32871246337891 87 45 87 C 50.67128753662109 87 56.17134475708008 85.88994598388672 61.34737396240234 83.70066070556641 C 66.34834289550781 81.58542633056641 70.84031677246094 78.55665588378906 74.698486328125 74.698486328125 C 78.55665588378906 70.84031677246094 81.58542633056641 66.34834289550781 83.70066070556641 61.34737396240234 C 85.88994598388672 56.17134475708008 87 50.67128753662109 87 45 C 87 39.32871246337891 85.88994598388672 33.82865524291992 83.70066070556641 28.65262985229492 C 81.58542633056641 23.65165710449219 78.55665588378906 19.15968322753906 74.698486328125 15.301513671875 C 70.84031677246094 11.44334411621094 66.34834289550781 8.414573669433594 61.34737396240234 6.299339294433594 C 56.17134475708008 4.110054016113281 50.67128753662109 3 45 3 M 45 0 C 69.85281372070312 0 90 20.14718627929688 90 45 C 90 69.85281372070312 69.85281372070312 90 45 90 C 20.14718627929688 90 0 69.85281372070312 0 45 C 0 20.14718627929688 20.14718627929688 0 45 0 Z" stroke="none" fill="#6e008a"/>
        </g>
      </g>
    </g>
    <g id="protector" transform="translate(611.198 2462.577)">
      <g id="Group_1145658" data-name="Group 1145658" transform="translate(33.974 1.034)">
        <g id="Group_1145654" data-name="Group 1145654">
          <g id="Group_1145653" data-name="Group 1145653">
            <g id="Group_1145638" data-name="Group 1145638">
              <path id="Path_981445" data-name="Path 981445" d="M99.739,35.6c-10.79,0-15.146,5.28-15.146,12.177,0,5.372,3.182,7.76,3.182,7.76H111.7s3.182-2.388,3.182-7.76C114.886,40.883,110.529,35.6,99.739,35.6Z" transform="translate(-78.483 -31.71)" fill="#433f43"/>
              <g id="Group_1145637" data-name="Group 1145637" transform="translate(0 7.97)">
                <g id="Group_1145636" data-name="Group 1145636">
                  <g id="Group_1145635" data-name="Group 1145635">
                    <path id="Path_981446" data-name="Path 981446" d="M64.993,245.1l-.375-4.572H58.771L58.4,245.1a3.723,3.723,0,0,1-3.041,3.369A18.13,18.13,0,0,0,40.438,266.3v10.743H82.952V266.3a18.13,18.13,0,0,0-14.917-17.841A3.723,3.723,0,0,1,64.993,245.1Z" transform="translate(-40.438 -216.244)" fill="#23f1a8"/>
                    <path id="Path_981447" data-name="Path 981447" d="M233.775,322.5a10.681,10.681,0,0,1-1.306.08,10.56,10.56,0,0,1-10.474-9.235,4.994,4.994,0,0,1-6.13,2.191,5,5,0,0,1,4.662-6.788,4.956,4.956,0,0,1,1.792.332.059.059,0,0,0,.006.014,10.467,10.467,0,0,1,.754-1.9A18.131,18.131,0,0,1,233.775,322.5Z" transform="translate(-191.304 -273.693)" fill="#26d192"/>
                    <path id="Path_981448" data-name="Path 981448" d="M148.834,249.039a9.952,9.952,0,0,1-17.3,0,18.175,18.175,0,0,1,2.312-.572,3.724,3.724,0,0,0,3.041-3.369l.376-4.571h5.845l.376,4.571a3.724,3.724,0,0,0,3.041,3.369A18.206,18.206,0,0,1,148.834,249.039Z" transform="translate(-118.926 -216.246)" fill="#fdb0a0"/>
                    <path id="Path_981449" data-name="Path 981449" d="M174.733,246.493a18.214,18.214,0,0,1-7.392,0,3.749,3.749,0,0,0,.4-1.4l.375-4.572h5.846l.375,4.572A3.749,3.749,0,0,0,174.733,246.493Z" transform="translate(-149.78 -216.243)" fill="#f89f8e"/>
                    <path id="Path_981450" data-name="Path 981450" d="M201.62,249.039a9.936,9.936,0,0,1-2.1,2.569q-1.018-.274-2.07-.464a5.1,5.1,0,0,1-4.162-4.612l-.494-6.006h3.1l.376,4.571a3.724,3.724,0,0,0,3.041,3.369A18.16,18.16,0,0,1,201.62,249.039Z" transform="translate(-171.711 -216.247)" fill="#f89f8e"/>
                    <g id="Group_1145634" data-name="Group 1145634" transform="translate(4.491 10.802)">
                      <g id="Group_1145632" data-name="Group 1145632">
                        <circle id="Ellipse_11694" data-name="Ellipse 11694" cx="3.647" cy="3.647" r="3.647" fill="#fdb0a0"/>
                      </g>
                      <g id="Group_1145633" data-name="Group 1145633" transform="translate(26.238)">
                        <circle id="Ellipse_11695" data-name="Ellipse 11695" cx="3.647" cy="3.647" r="3.647" fill="#fdb0a0"/>
                      </g>
                    </g>
                    <path id="Path_981451" data-name="Path 981451" d="M117.208,93.084a12.076,12.076,0,0,1-12.044-11.191l-.263-3.581a12.34,12.34,0,1,1,24.613,0l-.263,3.581A12.076,12.076,0,0,1,117.208,93.084Z" transform="translate(-95.952 -65.068)" fill="#ffcec0"/>
                  </g>
                </g>
              </g>
              <path id="Path_981452" data-name="Path 981452" d="M100.055,15.256s-.932,8.237,12.812,8.237c13.387,0,15.836-5.452,15.251-11.846a1.367,1.367,0,0,0-1.454-1.237,12.932,12.932,0,0,1-6.148-1.156C115.678,7.092,102.907,4.977,100.055,15.256Z" transform="translate(-91.794 -7.469)" fill="#685e67"/>
              <path id="Path_981453" data-name="Path 981453" d="M143.164,41.4a19.908,19.908,0,0,1-7.96-1.356,26.518,26.518,0,0,0,4.283.318c13.385,0,15.836-5.452,15.249-11.847a1.28,1.28,0,0,0-.051-.264,11.954,11.954,0,0,0,2.275.065,1.368,1.368,0,0,1,1.454,1.237C159,35.946,156.55,41.4,143.164,41.4Z" transform="translate(-122.09 -25.374)" fill="#554e55"/>
            </g>
            <g id="Group_1145652" data-name="Group 1145652" transform="translate(25.785 29.456)">
              <g id="Group_1145641" data-name="Group 1145641" transform="translate(2.336 21.905)">
                <g id="Group_1145640" data-name="Group 1145640">
                  <path id="Path_981454" data-name="Path 981454" d="M272.852,396.049a12.455,12.455,0,0,0-10.243-11.957,2.558,2.558,0,0,1-2.089-2.315l-.258-3.141h-4.017l-.258,3.141a2.558,2.558,0,0,1-2.089,2.314,12.455,12.455,0,0,0-10.243,11.957h29.2Z" transform="translate(-243.655 -378.636)" fill="#fcb44d"/>
                  <path id="Path_981455" data-name="Path 981455" d="M344.006,384.1a12.455,12.455,0,0,1,10.243,11.956h3.045A12.455,12.455,0,0,0,347.053,384.1a2.558,2.558,0,0,1-2.09-2.315l-.258-3.141H341.66l.257,3.141A2.56,2.56,0,0,0,344.006,384.1Z" transform="translate(-328.098 -378.639)" fill="#fb9927"/>
                  <path id="Path_981456" data-name="Path 981456" d="M304.2,385.7l-.13.228a9.746,9.746,0,0,1-16.942,0L287,385.7a12.361,12.361,0,0,1,4.245-1.6,2.559,2.559,0,0,0,2.089-2.315l.258-3.141h4.016l.258,3.141a2.559,2.559,0,0,0,2.089,2.315A12.361,12.361,0,0,1,304.2,385.7Z" transform="translate(-280.999 -378.639)" fill="#f2eff2"/>
                  <path id="Path_981457" data-name="Path 981457" d="M351.3,385.7l-.13.228a9.651,9.651,0,0,1-.891,1.3,12.406,12.406,0,0,0-6.271-3.135,2.56,2.56,0,0,1-2.089-2.315l-.257-3.141H344.7l.258,3.141a2.559,2.559,0,0,0,2.089,2.315A12.362,12.362,0,0,1,351.3,385.7Z" transform="translate(-328.097 -378.64)" fill="#e1dde1"/>
                  <path id="Path_981458" data-name="Path 981458" d="M318.085,384.489a6.838,6.838,0,0,1-11.888,0,12.46,12.46,0,0,1,1.588-.393,2.559,2.559,0,0,0,2.09-2.315l.258-3.141h4.016l.258,3.141A2.559,2.559,0,0,0,316.5,384.1,12.452,12.452,0,0,1,318.085,384.489Z" transform="translate(-297.542 -378.64)" fill="#fdb0a0"/>
                  <g id="Group_1145639" data-name="Group 1145639" transform="translate(11.957 0.001)">
                    <path id="Path_981459" data-name="Path 981459" d="M335.387,382.985a10.641,10.641,0,0,1-5.323-.062,2.578,2.578,0,0,0,.376-1.143l.258-3.141h4.016l.258,3.141A2.574,2.574,0,0,0,335.387,382.985Z" transform="translate(-330.064 -378.64)" fill="#f89f8e"/>
                    <path id="Path_981460" data-name="Path 981460" d="M354.352,384.489a6.83,6.83,0,0,1-1.443,1.765c-.466-.125-.941-.233-1.422-.319a3.5,3.5,0,0,1-2.859-3.169l-.34-4.127h2.128l.258,3.141a2.559,2.559,0,0,0,2.09,2.315A12.443,12.443,0,0,1,354.352,384.489Z" transform="translate(-345.766 -378.64)" fill="#f89f8e"/>
                  </g>
                </g>
              </g>
              <g id="Group_1145648" data-name="Group 1145648" transform="translate(0 10.562)">
                <g id="Group_1145644" data-name="Group 1145644" transform="translate(0 0)">
                  <g id="Group_1145642" data-name="Group 1145642">
                    <path id="Path_981461" data-name="Path 981461" d="M226.772,301.66a4.983,4.983,0,0,0,.332,1.791A5,5,0,0,0,233.557,297a5,5,0,0,0-6.785,4.664Z" transform="translate(-226.772 -296.664)" fill="#554e55"/>
                  </g>
                  <g id="Group_1145643" data-name="Group 1145643" transform="translate(0.029 0.02)">
                    <path id="Path_981462" data-name="Path 981462" d="M234.073,298.911a5,5,0,0,1-6.786,4.664,5.045,5.045,0,0,1-.3-1.243c.15.013.3.02.453.02a5,5,0,0,0,4.994-5,5.336,5.336,0,0,0-.029-.548,4.987,4.987,0,0,1,1.338.312A4.965,4.965,0,0,1,234.073,298.911Z" transform="translate(-226.985 -296.808)" fill="#433f43"/>
                  </g>
                </g>
                <g id="Group_1145647" data-name="Group 1145647" transform="translate(26.753)">
                  <g id="Group_1145645" data-name="Group 1145645" transform="translate(0 0)">
                    <path id="Path_981463" data-name="Path 981463" d="M427.218,301.66a4.995,4.995,0,1,1-4.994-5A4.981,4.981,0,0,1,427.218,301.66Z" transform="translate(-420.101 -296.664)" fill="#554e55"/>
                  </g>
                  <g id="Group_1145646" data-name="Group 1145646" transform="translate(0.095)">
                    <path id="Path_981464" data-name="Path 981464" d="M427.807,301.658a1.607,1.607,0,0,1-2.124,2.122c-.1,0-.2,0-.3-.009a5,5,0,0,0-4.6-5.951,4.857,4.857,0,0,1,.237-.826,4.993,4.993,0,0,1,6.785,4.664Z" transform="translate(-420.785 -296.661)" fill="#433f43"/>
                  </g>
                </g>
              </g>
              <circle id="Ellipse_11696" data-name="Ellipse 11696" cx="10.559" cy="10.559" r="10.559" transform="translate(6.376 3.277)" fill="#ffcec0"/>
              <g id="Group_1145649" data-name="Group 1145649" transform="translate(9.78 15.27)">
                <circle id="Ellipse_11697" data-name="Ellipse 11697" cx="1.206" cy="1.206" r="1.206" fill="#fc9aa1"/>
                <circle id="Ellipse_11698" data-name="Ellipse 11698" cx="1.206" cy="1.206" r="1.206" transform="translate(11.899)" fill="#fc9aa1"/>
              </g>
              <g id="Group_1145651" data-name="Group 1145651" transform="translate(6.208)">
                <path id="Path_981465" data-name="Path 981465" d="M271.631,228.6a8.24,8.24,0,0,0,.549,2.963,8.263,8.263,0,0,0,10.673-10.676,8.261,8.261,0,0,0-11.222,7.713Z" transform="translate(-271.631 -220.336)" fill="#554e55"/>
                <path id="Path_981466" data-name="Path 981466" d="M283.777,224.217a8.263,8.263,0,0,1-11.222,7.714,8.282,8.282,0,0,1-.489-1.963,7.2,7.2,0,0,0,9.2-9.2,8.216,8.216,0,0,1,1.961.489,8.249,8.249,0,0,1,.55,2.963Z" transform="translate(-272.005 -220.706)" fill="#433f43"/>
                <g id="Group_1145650" data-name="Group 1145650" transform="translate(9.683)">
                  <path id="Path_981467" data-name="Path 981467" d="M353.379,228.6a8.237,8.237,0,0,1-.549,2.963,8.263,8.263,0,0,1-10.673-10.676,8.261,8.261,0,0,1,11.222,7.713Z" transform="translate(-341.608 -220.336)" fill="#685e67"/>
                  <path id="Path_981468" data-name="Path 981468" d="M357.4,228.6a8.241,8.241,0,0,1-.55,2.963,8.212,8.212,0,0,1-2.495.535,8.262,8.262,0,0,0-7.314-11.246c-.257-.012-.513-.012-.767,0A8.262,8.262,0,0,1,357.4,228.6Z" transform="translate(-345.628 -220.339)" fill="#554e55"/>
                </g>
              </g>
            </g>
          </g>
        </g>
        <g id="Group_1145657" data-name="Group 1145657" transform="translate(40.345 5.738)">
          <g id="Group_1145656" data-name="Group 1145656" transform="translate(0 0)">
            <g id="Group_1145655" data-name="Group 1145655">
              <path id="Path_981469" data-name="Path 981469" d="M341.7,69.6a.884.884,0,0,1-1.061.007,20.576,20.576,0,0,1-4.43-4.523,23.308,23.308,0,0,1-4.221-12.2.89.89,0,0,1,.578-.9l8.176-3a.885.885,0,0,1,.61,0l8.178,3a.89.89,0,0,1,.578.9A23.729,23.729,0,0,1,346,65.082,20.341,20.341,0,0,1,341.7,69.6Z" transform="translate(-331.989 -48.931)" fill="#23f1a8"/>
              <path id="Path_981470" data-name="Path 981470" d="M391.644,64.845a23.729,23.729,0,0,1-4.107,12.195,20.336,20.336,0,0,1-4.3,4.516.882.882,0,0,1-1.061.007,19.642,19.642,0,0,1-1.983-1.685,20.51,20.51,0,0,0,3.905-4.206,23.731,23.731,0,0,0,4.107-12.2.9.9,0,0,0-.232-.664l3.093,1.135A.891.891,0,0,1,391.644,64.845Z" transform="translate(-373.521 -60.89)" fill="#26d192"/>
              <path id="Path_981471" data-name="Path 981471" d="M363.935,88.093a17.649,17.649,0,0,1-2.121-2.445,19.337,19.337,0,0,1-3.371-8.522l5.4-1.982,5.409,1.985a19.7,19.7,0,0,1-3.29,8.555A17.509,17.509,0,0,1,363.935,88.093Z" transform="translate(-354.782 -71.518)" fill="#fcb44d"/>
            </g>
          </g>
        </g>
      </g>
      <g id="Group_1145659" data-name="Group 1145659" transform="translate(32.936 0)">
        <path id="Path_981472" data-name="Path 981472" d="M98.4,413.768a1.038,1.038,0,0,0-1.038,1.038v11.513a1.038,1.038,0,0,0,2.076,0V414.806A1.038,1.038,0,0,0,98.4,413.768Z" transform="translate(-88.451 -356.511)"/>
        <path id="Path_981473" data-name="Path 981473" d="M37.5,347.816a1.038,1.038,0,0,0-1.437.3A19.085,19.085,0,0,0,32.936,358.6v10.743a1.038,1.038,0,0,0,2.076,0V358.6a17.014,17.014,0,0,1,2.785-9.352A1.038,1.038,0,0,0,37.5,347.816Z" transform="translate(-32.936 -299.539)"/>
        <path id="Path_981474" data-name="Path 981474" d="M143.536,161.985a1.038,1.038,0,0,0-1.038,1.038v.02a1.038,1.038,0,0,0,2.076,0v-.02A1.038,1.038,0,0,0,143.536,161.985Z" transform="translate(-127.337 -139.57)"/>
        <path id="Path_981475" data-name="Path 981475" d="M231.637,164.081a1.038,1.038,0,0,0,1.038-1.038v-.02a1.038,1.038,0,0,0-2.076,0v.02A1.038,1.038,0,0,0,231.637,164.081Z" transform="translate(-203.247 -139.57)"/>
        <path id="Path_981476" data-name="Path 981476" d="M172.506,202.8a1.038,1.038,0,0,0-1.46-1.475,3.26,3.26,0,0,1-4.59,0A1.038,1.038,0,1,0,165,202.8a5.336,5.336,0,0,0,7.51,0Z" transform="translate(-146.456 -173.211)"/>
        <path id="Path_981477" data-name="Path 981477" d="M116.6,40.015c-.088,0-.175.005-.263.009a9.3,9.3,0,0,0-11.679-10.238A9.3,9.3,0,0,0,92.975,40.021c-.087,0-.175-.006-.262-.006a6,6,0,0,0-2.092.375c-.3-.069-.6-.133-.908-.187a2.684,2.684,0,0,1-2.189-2.432l-.036-.435a13.114,13.114,0,0,0,8.424-9.216c.132.011.265.018.4.018a4.683,4.683,0,0,0,2.815-8.427,13.449,13.449,0,0,0,.25-2.607,14.023,14.023,0,0,0-.985-5.348,12.692,12.692,0,0,0,.9-6.64,2.416,2.416,0,0,0-2.56-2.177A11.849,11.849,0,0,1,91.08,1.871C87.555.3,80.391-1.145,75.1,1.344a10.737,10.737,0,0,0-5.909,7.2,1.056,1.056,0,0,0-.031.161,5.305,5.305,0,0,0,0,.9A12.882,12.882,0,0,0,67.007,17.1a13.451,13.451,0,0,0,.25,2.607,4.683,4.683,0,0,0,2.815,8.427c.133,0,.265-.007.4-.018a13.114,13.114,0,0,0,8.425,9.216l-.036.435A2.684,2.684,0,0,1,76.669,40.2a19.122,19.122,0,0,0-9.147,4.371,1.038,1.038,0,0,0,1.359,1.569A17.09,17.09,0,0,1,74.1,43.05a11.017,11.017,0,0,0,9.091,4.818,10.891,10.891,0,0,0,3.614-.609,6.008,6.008,0,0,0,.277.953,1.038,1.038,0,0,0,.6.6,6.039,6.039,0,0,0,5.937-.923,11.534,11.534,0,0,0,1.127,2.464,1.038,1.038,0,0,0,1.773-1.079,9.5,9.5,0,0,1-1.383-4.944,9.61,9.61,0,0,1,.088-1.293,9.288,9.288,0,0,0,9.436-3.171,9.28,9.28,0,0,0,9.428,3.172,9.631,9.631,0,0,1,.091,1.292,9.523,9.523,0,0,1-14.454,8.145,1.038,1.038,0,1,0-1.077,1.774,11.526,11.526,0,0,0,2.71,1.2v.009a1.519,1.519,0,0,1-1.237,1.378,13.523,13.523,0,0,0-11.1,12.954,1.038,1.038,0,0,0,1.013,1.062h.025a1.038,1.038,0,0,0,1.037-1.013,11.443,11.443,0,0,1,4.643-8.91,10.78,10.78,0,0,0,17.836,0,11.442,11.442,0,0,1,4.643,8.91,1.038,1.038,0,0,0,1.037,1.013h.025a1.038,1.038,0,0,0,1.013-1.062,13.523,13.523,0,0,0-11.1-12.954,1.519,1.519,0,0,1-1.237-1.378v-.011a11.645,11.645,0,0,0,7.738-7.564,6.021,6.021,0,0,0,5.937.931,1.038,1.038,0,0,0,.6-.6,6.034,6.034,0,0,0-5.631-8.2ZM104.654,63.572a8.729,8.729,0,0,1-7.142-3.728q.38-.186.777-.343a7.872,7.872,0,0,0,12.73,0q.4.158.777.343A8.73,8.73,0,0,1,104.654,63.572Zm4.173-4.7.011,0a5.788,5.788,0,0,1-8.37,0l.011,0a3.593,3.593,0,0,0,2.912-3.02,11.455,11.455,0,0,0,2.522,0A3.593,3.593,0,0,0,108.828,58.873ZM96.31,26.062l-.056,0c0-.052.011-.1.015-.155l.263-3.581a13.549,13.549,0,0,0,.028-1.468,2.609,2.609,0,0,1-.25,5.206Zm.011-7.294a13.252,13.252,0,0,0-1.138-3.355,9.552,9.552,0,0,0,1.743-1.478A12.921,12.921,0,0,1,97.3,17.1a11.6,11.6,0,0,1-.13,1.745A4.7,4.7,0,0,0,96.322,18.769ZM71.223,9a8.724,8.724,0,0,1,4.766-5.78c4.622-2.176,11.19-.821,14.245.544A13.929,13.929,0,0,0,96.877,5.01a.33.33,0,0,1,.349.3c.3,3.239-.277,5.528-1.806,7.2-2.126,2.33-6.3,3.511-12.412,3.511-4.857,0-8.416-1.093-10.291-3.161A5.524,5.524,0,0,1,71.223,9Zm-2.14,8.1a11.871,11.871,0,0,1,.866-4.648,7.9,7.9,0,0,0,1.189,1.75q.218.244.455.472a13.206,13.206,0,0,0-1.533,4.09,4.683,4.683,0,0,0-.847.08,11.592,11.592,0,0,1-.129-1.745Zm.989,8.958a2.609,2.609,0,0,1-.25-5.206,13.667,13.667,0,0,0,.027,1.468l.263,3.581c0,.052.011.1.015.155l-.055,0Zm2.11-.309-.263-3.581a11.187,11.187,0,0,1,1.338-6.224c2.352,1.426,5.617,2.147,9.751,2.147A26.078,26.078,0,0,0,93.359,16.4a11.243,11.243,0,0,1,1.1,5.768L94.2,25.753a11.038,11.038,0,0,1-22.017,0Zm4.028,16.664c.273-.063.547-.121.824-.171a4.762,4.762,0,0,0,3.893-4.305l.007-.08a13,13,0,0,0,4.516,0l.006.08a4.774,4.774,0,0,0,2.853,3.991,6.018,6.018,0,0,0-1.542,3.114,8.815,8.815,0,0,1-3.575.746,8.935,8.935,0,0,1-6.981-3.375Zm13.632,4.717a3.952,3.952,0,0,1-.966-.119,3.951,3.951,0,0,1,4.389-4.884,11.672,11.672,0,0,0-.208,2.2c0,.362.018.723.052,1.081A3.93,3.93,0,0,1,89.843,47.133Zm7.6-5.907a7.2,7.2,0,0,1-2.148-.326,7.227,7.227,0,0,1,6.9-9.373c.239,0,.476.012.712.035a9.283,9.283,0,0,0,.569,6.416,7.253,7.253,0,0,1-6.029,3.247ZM104.648,34a7.2,7.2,0,0,1,.326-2.148,7.226,7.226,0,0,1,9.044,9.047,7.225,7.225,0,0,1-9.37-6.9Zm15.784,13.013a3.958,3.958,0,0,1-4.233-1.608c.033-.356.052-.716.052-1.081a11.679,11.679,0,0,0-.209-2.2,3.959,3.959,0,0,1,4.509,3.919,3.959,3.959,0,0,1-.119.966Z" transform="translate(-60.897 0)"/>
        <path id="Path_981478" data-name="Path 981478" d="M333.7,350.327a1.038,1.038,0,0,0-1.461-1.475,1.6,1.6,0,0,1-2.259,0,1.038,1.038,0,1,0-1.46,1.475,3.68,3.68,0,0,0,5.18,0Z" transform="translate(-287.354 -300.32)"/>
        <path id="Path_981479" data-name="Path 981479" d="M309.449,321.58v-.014a1.038,1.038,0,1,0-2.076,0v.014a1.038,1.038,0,0,0,2.076,0Z" transform="translate(-269.397 -276.174)"/>
        <path id="Path_981480" data-name="Path 981480" d="M378.007,321.58v-.014a1.038,1.038,0,1,0-2.076,0v.014a1.038,1.038,0,0,0,2.076,0Z" transform="translate(-328.468 -276.174)"/>
        <path id="Path_981481" data-name="Path 981481" d="M363.147,69.693l-5.409-1.985a1.038,1.038,0,0,0-.715,0l-5.4,1.982a1.038,1.038,0,0,0-.669,1.129,20.39,20.39,0,0,0,3.555,8.973,18.7,18.7,0,0,0,2.246,2.589,1.038,1.038,0,0,0,1.447-.012,18.551,18.551,0,0,0,2.148-2.551,20.755,20.755,0,0,0,3.466-9A1.038,1.038,0,0,0,363.147,69.693Zm-10,1.648,3.205-1.176.062,8.713c-.074-.1-.149-.2-.221-.3A18.1,18.1,0,0,1,353.148,71.342Zm5.5,7.287c-.052.074-.105.147-.159.22l-.061-8.675,3.2,1.173A18.433,18.433,0,0,1,358.649,78.628Z" transform="translate(-306.937 -58.284)"/>
        <path id="Path_981482" data-name="Path 981482" d="M328.906,59.227a21.662,21.662,0,0,0,4.657,4.752,1.933,1.933,0,0,0,2.306-.016,21.152,21.152,0,0,0,3.561-3.472,1.038,1.038,0,0,0-1.611-1.309,19.109,19.109,0,0,1-3.115,3.059,19.6,19.6,0,0,1-4.112-4.225,22.273,22.273,0,0,1-4.02-11.555l8.016-2.942,8.018,2.942a23.8,23.8,0,0,1-2.237,8.7,1.038,1.038,0,1,0,1.869.9,25.9,25.9,0,0,0,2.447-9.565,1.938,1.938,0,0,0-1.256-1.944l-8.178-3a1.925,1.925,0,0,0-1.325,0l-8.176,3a1.938,1.938,0,0,0-1.256,1.947,24.35,24.35,0,0,0,4.413,12.728Z" transform="translate(-284.143 -35.7)"/>
      </g>
    </g>
  </g>
</svg>
