<svg xmlns="http://www.w3.org/2000/svg" xmlns:xlink="http://www.w3.org/1999/xlink" width="108" height="108" viewBox="0 0 108 108">
  <defs>
    <filter id="Path_904820" x="0" y="0" width="108" height="108" filterUnits="userSpaceOnUse">
      <feOffset dy="3" input="SourceAlpha"/>
      <feGaussianBlur stdDeviation="3" result="blur"/>
      <feFlood flood-opacity="0.161"/>
      <feComposite operator="in" in2="blur"/>
      <feComposite in="SourceGraphic"/>
    </filter>
  </defs>
  <g id="Group_1145620" data-name="Group 1145620" transform="translate(-201.245 -558)">
    <g id="Icono" transform="translate(-413.856 -4442)">
      <g transform="matrix(1, 0, 0, 1, 615.1, 5000)" filter="url(#Path_904820)">
        <g id="Path_904820-2" data-name="Path 904820" transform="translate(9 6)" fill="#ebf0f7">
          <path d="M 45 88.5 C 39.12687683105469 88.5 33.43022537231445 87.35007476806641 28.06830024719238 85.08217620849609 C 22.88852500915527 82.89131164550781 18.23629951477051 79.75458526611328 14.2408504486084 75.75914764404297 C 10.24541282653809 71.76370239257812 7.108687400817871 67.11147308349609 4.917825222015381 61.93170166015625 C 2.649924993515015 56.56977462768555 1.5 50.87312316894531 1.5 45 C 1.5 39.12687683105469 2.649924993515015 33.43022537231445 4.917825222015381 28.06830024719238 C 7.108687400817871 22.88852500915527 10.24541282653809 18.23629951477051 14.2408504486084 14.2408504486084 C 18.23629951477051 10.24541282653809 22.88852500915527 7.108687400817871 28.06830024719238 4.917825222015381 C 33.43022537231445 2.649924993515015 39.12687683105469 1.5 45 1.5 C 50.87312316894531 1.5 56.56977462768555 2.649924993515015 61.93170166015625 4.917825222015381 C 67.11147308349609 7.108687400817871 71.76370239257812 10.24541282653809 75.75914764404297 14.2408504486084 C 79.75458526611328 18.23629951477051 82.89131164550781 22.88852500915527 85.08217620849609 28.06830024719238 C 87.35007476806641 33.43022537231445 88.5 39.12687683105469 88.5 45 C 88.5 50.87312316894531 87.35007476806641 56.56977462768555 85.08217620849609 61.93170166015625 C 82.89131164550781 67.11147308349609 79.75458526611328 71.76370239257812 75.75914764404297 75.75914764404297 C 71.76370239257812 79.75458526611328 67.11147308349609 82.89131164550781 61.93170166015625 85.08217620849609 C 56.56977462768555 87.35007476806641 50.87312316894531 88.5 45 88.5 Z" stroke="none"/>
          <path d="M 45 3 C 39.32871246337891 3 33.82865524291992 4.110054016113281 28.65262985229492 6.299339294433594 C 23.65165710449219 8.414573669433594 19.15968322753906 11.44334411621094 15.301513671875 15.301513671875 C 11.44334411621094 19.15968322753906 8.414573669433594 23.65165710449219 6.299339294433594 28.65262985229492 C 4.110054016113281 33.82865524291992 3 39.32871246337891 3 45 C 3 50.67128753662109 4.110054016113281 56.17134475708008 6.299339294433594 61.34737396240234 C 8.414573669433594 66.34834289550781 11.44334411621094 70.84031677246094 15.301513671875 74.698486328125 C 19.15968322753906 78.55665588378906 23.65165710449219 81.58542633056641 28.65262985229492 83.70066070556641 C 33.82865524291992 85.88994598388672 39.32871246337891 87 45 87 C 50.67128753662109 87 56.17134475708008 85.88994598388672 61.34737396240234 83.70066070556641 C 66.34834289550781 81.58542633056641 70.84031677246094 78.55665588378906 74.698486328125 74.698486328125 C 78.55665588378906 70.84031677246094 81.58542633056641 66.34834289550781 83.70066070556641 61.34737396240234 C 85.88994598388672 56.17134475708008 87 50.67128753662109 87 45 C 87 39.32871246337891 85.88994598388672 33.82865524291992 83.70066070556641 28.65262985229492 C 81.58542633056641 23.65165710449219 78.55665588378906 19.15968322753906 74.698486328125 15.301513671875 C 70.84031677246094 11.44334411621094 66.34834289550781 8.414573669433594 61.34737396240234 6.299339294433594 C 56.17134475708008 4.110054016113281 50.67128753662109 3 45 3 M 45 0 C 69.85281372070312 0 90 20.14718627929688 90 45 C 90 69.85281372070312 69.85281372070312 90 45 90 C 20.14718627929688 90 0 69.85281372070312 0 45 C 0 20.14718627929688 20.14718627929688 0 45 0 Z" stroke="none" fill="#6e008a"/>
        </g>
      </g>
    </g>
    <g id="biologico" transform="translate(221.583 575.337)">
      <circle id="Ellipse_11692" data-name="Ellipse 11692" cx="32.731" cy="32.731" r="32.731" transform="translate(1.129 1.129)" fill="#4dbaf6"/>
      <circle id="Ellipse_11693" data-name="Ellipse 11693" cx="27.08" cy="27.08" r="27.08" transform="translate(6.583 6.583)" fill="#ade5ff"/>
      <path id="Path_981419" data-name="Path 981419" d="M124.6,146.637a15.2,15.2,0,1,0,25.854,12.319h0L152.812,140l-18.937,2.265.006.006A15.073,15.073,0,0,0,124.6,146.637Z" transform="translate(-104.367 -121.591)" fill="#a0e557"/>
      <path id="Path_981420" data-name="Path 981420" d="M57.466,9.86A33.663,33.663,0,0,0,9.86,57.466,33.663,33.663,0,0,0,57.466,9.86ZM33.663,64.7A31.033,31.033,0,1,1,64.7,33.663,31.068,31.068,0,0,1,33.663,64.7Z" transform="translate(0 0)"/>
      <path id="Path_981421" data-name="Path 981421" d="M75.789,46.785a1.315,1.315,0,1,0-.677,2.541,25.765,25.765,0,1,1-13.171-.036,1.315,1.315,0,1,0-.663-2.545,28.394,28.394,0,1,0,14.511.04Z" transform="translate(-34.795 -40.561)"/>
      <path id="Path_981422" data-name="Path 981422" d="M246.877,42.693h.058a1.315,1.315,0,0,0,0-2.63h-.062a1.315,1.315,0,0,0,0,2.63Z" transform="translate(-213.272 -34.795)"/>
      <path id="Path_981423" data-name="Path 981423" d="M110.168,148.683a16.431,16.431,0,0,0,4.846,11.669c.121.121.245.24.369.357a14.991,14.991,0,0,0-.595,4.192,1.315,1.315,0,1,0,2.63,0,12.419,12.419,0,0,1,.233-2.4,16.415,16.415,0,0,0,9.032,2.7h.023a16.444,16.444,0,0,0,16.365-14.75l0-.014,2.358-18.956a1.315,1.315,0,0,0-1.461-1.468l-18.937,2.265c-.035,0-.07.01-.1.017a16.446,16.446,0,0,0-14.762,16.391ZM125.319,134.9a1.294,1.294,0,0,0,.165-.026l17.13-2.049-2.145,17.244c0,.025-.007.049-.01.074a13.814,13.814,0,0,1-13.753,12.429h-.019a13.8,13.8,0,0,1-8.2-2.691,12.3,12.3,0,0,1,2.536-3.673l.405-.405h10.682a1.315,1.315,0,0,0,0-2.63h-8.052l4.274-4.274h7.2a1.315,1.315,0,0,0,0-2.63h-4.566l7.528-7.527a1.315,1.315,0,0,0-1.86-1.86l-7.528,7.528V139.84a1.315,1.315,0,0,0-2.63,0v7.2L122.2,151.31v-4.8a1.315,1.315,0,1,0-2.63,0v7.432l-.405.405a14.968,14.968,0,0,0-2.713,3.7,13.836,13.836,0,0,1,8.871-23.151Z" transform="translate(-95.681 -112.906)"/>
      <path id="Path_981424" data-name="Path 981424" d="M182.964,210.63a1.313,1.313,0,1,0-.931-.385A1.327,1.327,0,0,0,182.964,210.63Z" transform="translate(-157.763 -180.649)"/>
    </g>
  </g>
</svg>
