<svg xmlns="http://www.w3.org/2000/svg" xmlns:xlink="http://www.w3.org/1999/xlink" width="108" height="108" viewBox="0 0 108 108">
  <defs>
    <filter id="Path_904820" x="0" y="0" width="108" height="108" filterUnits="userSpaceOnUse">
      <feOffset dy="3" input="SourceAlpha"/>
      <feGaussianBlur stdDeviation="3" result="blur"/>
      <feFlood flood-opacity="0.161"/>
      <feComposite operator="in" in2="blur"/>
      <feComposite in="SourceGraphic"/>
    </filter>
  </defs>
  <g id="Group_1145668" data-name="Group 1145668" transform="translate(-201.245 -5119)">
    <g id="Icono" transform="translate(-413.856 119)">
      <g transform="matrix(1, 0, 0, 1, 615.1, 5000)" filter="url(#Path_904820)">
        <g id="Path_904820-2" data-name="Path 904820" transform="translate(9 6)" fill="#ebf0f7">
          <path d="M 45 88.5 C 39.12687683105469 88.5 33.43022537231445 87.35007476806641 28.06830024719238 85.08217620849609 C 22.88852500915527 82.89131164550781 18.23629951477051 79.75458526611328 14.2408504486084 75.75914764404297 C 10.24541282653809 71.76370239257812 7.108687400817871 67.11147308349609 4.917825222015381 61.93170166015625 C 2.649924993515015 56.56977462768555 1.5 50.87312316894531 1.5 45 C 1.5 39.12687683105469 2.649924993515015 33.43022537231445 4.917825222015381 28.06830024719238 C 7.108687400817871 22.88852500915527 10.24541282653809 18.23629951477051 14.2408504486084 14.2408504486084 C 18.23629951477051 10.24541282653809 22.88852500915527 7.108687400817871 28.06830024719238 4.917825222015381 C 33.43022537231445 2.649924993515015 39.12687683105469 1.5 45 1.5 C 50.87312316894531 1.5 56.56977462768555 2.649924993515015 61.93170166015625 4.917825222015381 C 67.11147308349609 7.108687400817871 71.76370239257812 10.24541282653809 75.75914764404297 14.2408504486084 C 79.75458526611328 18.23629951477051 82.89131164550781 22.88852500915527 85.08217620849609 28.06830024719238 C 87.35007476806641 33.43022537231445 88.5 39.12687683105469 88.5 45 C 88.5 50.87312316894531 87.35007476806641 56.56977462768555 85.08217620849609 61.93170166015625 C 82.89131164550781 67.11147308349609 79.75458526611328 71.76370239257812 75.75914764404297 75.75914764404297 C 71.76370239257812 79.75458526611328 67.11147308349609 82.89131164550781 61.93170166015625 85.08217620849609 C 56.56977462768555 87.35007476806641 50.87312316894531 88.5 45 88.5 Z" stroke="none"/>
          <path d="M 45 3 C 39.32871246337891 3 33.82865524291992 4.110054016113281 28.65262985229492 6.299339294433594 C 23.65165710449219 8.414573669433594 19.15968322753906 11.44334411621094 15.301513671875 15.301513671875 C 11.44334411621094 19.15968322753906 8.414573669433594 23.65165710449219 6.299339294433594 28.65262985229492 C 4.110054016113281 33.82865524291992 3 39.32871246337891 3 45 C 3 50.67128753662109 4.110054016113281 56.17134475708008 6.299339294433594 61.34737396240234 C 8.414573669433594 66.34834289550781 11.44334411621094 70.84031677246094 15.301513671875 74.698486328125 C 19.15968322753906 78.55665588378906 23.65165710449219 81.58542633056641 28.65262985229492 83.70066070556641 C 33.82865524291992 85.88994598388672 39.32871246337891 87 45 87 C 50.67128753662109 87 56.17134475708008 85.88994598388672 61.34737396240234 83.70066070556641 C 66.34834289550781 81.58542633056641 70.84031677246094 78.55665588378906 74.698486328125 74.698486328125 C 78.55665588378906 70.84031677246094 81.58542633056641 66.34834289550781 83.70066070556641 61.34737396240234 C 85.88994598388672 56.17134475708008 87 50.67128753662109 87 45 C 87 39.32871246337891 85.88994598388672 33.82865524291992 83.70066070556641 28.65262985229492 C 81.58542633056641 23.65165710449219 78.55665588378906 19.15968322753906 74.698486328125 15.301513671875 C 70.84031677246094 11.44334411621094 66.34834289550781 8.414573669433594 61.34737396240234 6.299339294433594 C 56.17134475708008 4.110054016113281 50.67128753662109 3 45 3 M 45 0 C 69.85281372070312 0 90 20.14718627929688 90 45 C 90 69.85281372070312 69.85281372070312 90 45 90 C 20.14718627929688 90 0 69.85281372070312 0 45 C 0 20.14718627929688 20.14718627929688 0 45 0 Z" stroke="none" fill="#6e008a"/>
        </g>
      </g>
    </g>
    <g id="mano" transform="translate(209.604 5134.591)">
      <g id="Group_1145667" data-name="Group 1145667" transform="translate(14.678 1.037)">
        <g id="Group_1145665" data-name="Group 1145665">
          <g id="Group_1145664" data-name="Group 1145664">
            <path id="Path_981483" data-name="Path 981483" d="M82.924,47.116,65.055,50.193,82.607,39.339a5.679,5.679,0,0,0,1.992-7.56,2.716,2.716,0,0,0-3.794-1.013L60.414,43.192,76.162,24.72a5.679,5.679,0,0,0-.306-7.7l-.253-.253a2.716,2.716,0,0,0-3.869.029L53.147,35.958l9.9-20.626a5.679,5.679,0,0,0-2.427-7.456l-.092-.05a2.715,2.715,0,0,0-3.606.977c-2.875,4.718-9.68,15.81-13.315,21.1l-.027.039a4.524,4.524,0,0,1-7.648-.367L32.2,22.986a8.387,8.387,0,0,0-8.876-4.1,2.66,2.66,0,0,0-2,3.568c1.384,3.592,4.978,11.579,4.978,11.579a23.881,23.881,0,0,1-.65,15.932,19.068,19.068,0,0,0,31.13,20.707l9.044-9.044a4.9,4.9,0,0,1,1.853-1.163l14.625-5.1A5.679,5.679,0,0,0,86.1,49.812l0-.111a2.716,2.716,0,0,0-3.175-2.585Z" transform="translate(-21.137 -7.501)" fill="#f69583"/>
            <g id="Group_1145662" data-name="Group 1145662" transform="translate(27.9 0)">
              <path id="Path_981484" data-name="Path 981484" d="M295.213,77.488,286.76,87.4l-11.406,6.95L291.1,75.883a5.678,5.678,0,0,0,.4-6.846,2.715,2.715,0,0,1,3.157.5l.253.253A5.678,5.678,0,0,1,295.213,77.488Z" transform="translate(-268.087 -60.268)" fill="#ea806f"/>
              <g id="Group_1145661" data-name="Group 1145661">
                <path id="Path_981485" data-name="Path 981485" d="M330.557,181.781l-12.37,7.65-9.293,1.6,17.553-10.854a5.682,5.682,0,0,0,2.281-6.953l.028-.017a2.715,2.715,0,0,1,3.794,1.013A5.678,5.678,0,0,1,330.557,181.781Z" transform="translate(-296.988 -149.943)" fill="#ea806f"/>
                <path id="Path_981486" data-name="Path 981486" d="M236.83,15.332,232.481,24.4l-9.657,9.956,9.9-20.626a5.674,5.674,0,0,0-.707-6.031,2.716,2.716,0,0,1,2.3.13l.091.05a5.678,5.678,0,0,1,2.428,7.456Z" transform="translate(-222.824 -7.501)" fill="#ea806f"/>
              </g>
            </g>
            <g id="Group_1145663" data-name="Group 1145663" transform="translate(5.635 18.797)">
              <path id="Path_981487" data-name="Path 981487" d="M99.723,168.811l-9.2-8.123,10.17,3.595a1.615,1.615,0,0,0,2.121-1.2l.013-.065a3.378,3.378,0,0,0-1.676-3.638l-2.189-1.209-3.445,2.1,2.32-2.721L92.5,154.607l-2.436-3.44-1.816,1.872,1.269-2.645-1.8-2.542a11.3,11.3,0,0,0-6.617-4.473c-.882,1.359-1.7,2.591-2.4,3.608l-.027.039a4.528,4.528,0,0,1-7.652-.374l-.3-.536a11.35,11.35,0,0,0-3.332,10.759,14.205,14.205,0,0,1-1.216,9.407s-2.907,4.323-4.079,6.291a1.582,1.582,0,0,0,.818,2.293,4.989,4.989,0,0,0,5.616-1.517l2.846-3.487a2.694,2.694,0,0,1,4.524.548l.012.025c1.6,3.468,4.48,10.654,5.693,13.708a1.615,1.615,0,0,0,2.017.934l.059-.02a3.378,3.378,0,0,0,2.17-4.129L82.11,167.842l8.978,13.1a1.615,1.615,0,0,0,2.266.405l.174-.123a3.378,3.378,0,0,0,.951-4.484L87.1,164.328l10.711,9.33a1.616,1.616,0,0,0,2.326-.214A3.378,3.378,0,0,0,99.723,168.811Z" transform="translate(-61.869 -143.379)" fill="#ea806f"/>
            </g>
            <path id="Path_981488" data-name="Path 981488" d="M124.954,301.878l-14.625,5.095a4.894,4.894,0,0,0-1.852,1.163l-9.044,9.044a19.081,19.081,0,0,1-28.789-2.107,19.07,19.07,0,0,0,25.524-1.3l9.044-9.044a4.924,4.924,0,0,1,1.854-1.162l14.625-5.1a5.675,5.675,0,0,0,3.782-4.82l.111-.019a2.714,2.714,0,0,1,3.175,2.584l0,.111A5.677,5.677,0,0,1,124.954,301.878Z" transform="translate(-63.795 -254.013)" fill="#ea806f"/>
          </g>
        </g>
        <g id="Group_1145666" data-name="Group 1145666" transform="translate(8.709 14.931)">
          <path id="Path_981489" data-name="Path 981489" d="M122.915,136.655l-10.17-3.595,9.2,8.123a3.378,3.378,0,0,1,.411,4.633,1.615,1.615,0,0,1-2.326.214l-10.711-9.33,7.383,12.409a3.378,3.378,0,0,1-.951,4.484l-.174.123a1.615,1.615,0,0,1-2.266-.405l-8.978-13.1,3.736,13.086a3.378,3.378,0,0,1-2.17,4.129l-.059.02a1.615,1.615,0,0,1-2.016-.934c-1.213-3.054-4.092-10.24-5.693-13.708l-.012-.025a2.694,2.694,0,0,0-4.524-.548l-2.846,3.487a4.989,4.989,0,0,1-5.616,1.517,1.582,1.582,0,0,1-.818-2.293c1.172-1.968,4.079-6.291,4.079-6.291a14.206,14.206,0,0,0,1.216-9.407,11.343,11.343,0,0,1,20.328-9.023l4.783,6.754,8.649,4.776a3.378,3.378,0,0,1,1.676,3.638l-.013.065a1.615,1.615,0,0,1-2.121,1.2Z" transform="translate(-84.096 -115.435)" fill="#ffcec0"/>
          <path id="Path_981490" data-name="Path 981490" d="M188.673,135.4l-.014.065a1.615,1.615,0,0,1-2.121,1.2l-1.342-.474a3.377,3.377,0,0,0-1.742-2.822l-8.161-4.506a2.438,2.438,0,0,1-.811-.725l-4.46-6.3a11.347,11.347,0,0,0-12.089-4.431,11.342,11.342,0,0,1,15.632,2.826l4.782,6.755L187,131.759A3.38,3.38,0,0,1,188.673,135.4Z" transform="translate(-147.72 -115.44)" fill="#fdb0a0"/>
        </g>
      </g>
      <path id="Path_981491" data-name="Path 981491" d="M80.681,43.314l0-.111a3.753,3.753,0,0,0-4.388-3.572l-12.6,2.17,13-8.042a6.714,6.714,0,0,0,2.356-8.942,3.753,3.753,0,0,0-5.244-1.4l-11.913,7.26-.962-.531L70.493,18.93a6.751,6.751,0,0,0-.362-9.106l-.253-.253a3.725,3.725,0,0,0-2.653-1.1H67.2a3.726,3.726,0,0,0-2.666,1.14L59.492,14.8a1.037,1.037,0,0,0,1.489,1.445l5.038-5.194a1.678,1.678,0,0,1,2.391-.018l.253.253a4.665,4.665,0,0,1,.25,6.293L59.077,29.121l-4.353-2.4L53.08,24.4l4.4-4.541A1.037,1.037,0,0,0,56,18.409L51.86,22.673l-.446-.63L57.52,9.317A6.707,6.707,0,0,0,54.649.5L54.557.449A3.752,3.752,0,0,0,49.573,1.8c-1.728,2.836-5.048,8.257-8.178,13.21a12.375,12.375,0,0,0-5.076.474,1.037,1.037,0,1,0,.613,1.982,10.282,10.282,0,0,1,11.454,3.89l4.783,6.754a1.038,1.038,0,0,0,.345.309L62.163,33.2a2.33,2.33,0,0,1,1.161,2.521l-.013.064a.578.578,0,0,1-.759.428l-10.17-3.595a1.038,1.038,0,0,0-1.032,1.756l9.2,8.123a2.34,2.34,0,0,1,.285,3.21.578.578,0,0,1-.832.076L49.3,36.451a1.037,1.037,0,0,0-1.573,1.313l7.383,12.409a2.352,2.352,0,0,1-.659,3.107l-.174.123a.578.578,0,0,1-.81-.145l-8.978-13.1a1.038,1.038,0,0,0-1.853.872l3.736,13.086a2.338,2.338,0,0,1-1.5,2.861L44.8,57a.578.578,0,0,1-.721-.334c-1.179-2.97-4.1-10.256-5.713-13.756l-.016-.034a3.731,3.731,0,0,0-6.268-.764L29.24,45.6a3.95,3.95,0,0,1-4.448,1.2.554.554,0,0,1-.336-.338.53.53,0,0,1,.046-.453c1.144-1.92,4.02-6.2,4.048-6.242a1.044,1.044,0,0,0,.068-.116,15.277,15.277,0,0,0,1.3-10.1,10.328,10.328,0,0,1,3.061-9.806,1.037,1.037,0,1,0-1.407-1.525A12.265,12.265,0,0,0,29.4,20.885L26.64,16.012A9.419,9.419,0,0,0,16.666,11.4,3.718,3.718,0,0,0,14.1,13.246a3.676,3.676,0,0,0-.216,3.114c1.33,3.451,4.608,10.761,4.971,11.569A22.887,22.887,0,0,1,18.224,43.1a20.129,20.129,0,0,0-1.2,11.028,1.037,1.037,0,0,0,2.045-.35,18.056,18.056,0,0,1,1.079-9.893,24.974,24.974,0,0,0,.683-16.624,1.075,1.075,0,0,0-.047-.126c-.036-.08-3.6-8-4.956-11.526a1.606,1.606,0,0,1,.094-1.36,1.648,1.648,0,0,1,1.138-.816,7.345,7.345,0,0,1,7.778,3.6l3.478,6.142a12.4,12.4,0,0,0-.421,6.829,13.191,13.191,0,0,1-1.1,8.659c-.362.539-2.958,4.412-4.071,6.282a2.62,2.62,0,0,0,1.345,3.8,6.023,6.023,0,0,0,6.784-1.833l2.846-3.487a1.658,1.658,0,0,1,1.5-.6,1.609,1.609,0,0,1,1.284.93l.009.02c1.6,3.458,4.5,10.7,5.67,13.656a2.651,2.651,0,0,0,3.313,1.534l.058-.02a4.41,4.41,0,0,0,2.837-5.4l-1.987-6.959,5.376,7.842a2.653,2.653,0,0,0,3.721.665l.174-.123a4.438,4.438,0,0,0,1.243-5.861l-4.07-6.84,5.825,5.073a2.653,2.653,0,0,0,3.82-.351,4.4,4.4,0,0,0,.946-3.04l13.23-2.278a1.678,1.678,0,0,1,1.962,1.6l0,.111A4.62,4.62,0,0,1,75.5,47.922l-14.625,5.1a5.975,5.975,0,0,0-2.245,1.409l-9.044,9.044a18.035,18.035,0,0,1-29.109-5.163,1.037,1.037,0,0,0-1.883.872,20.121,20.121,0,0,0,32.458,5.758l9.044-9.044a3.887,3.887,0,0,1,1.461-.917l14.625-5.1a6.687,6.687,0,0,0,4.5-6.568ZM43.565,15.458c3.012-4.78,6.124-9.863,7.779-12.578a1.678,1.678,0,0,1,2.229-.6l.092.049A4.635,4.635,0,0,1,55.649,8.42L50.042,20.107a12.36,12.36,0,0,0-6.477-4.649Zm18.3,22.708A2.653,2.653,0,0,0,65.344,36.2l.013-.064a4.39,4.39,0,0,0-1.462-4.248l10.991-6.7a1.678,1.678,0,0,1,2.345.626A4.64,4.64,0,0,1,75.6,31.993l-14,8.658-4.87-4.3Z" transform="translate(0 0)"/>
    </g>
  </g>
</svg>
