<svg xmlns="http://www.w3.org/2000/svg" xmlns:xlink="http://www.w3.org/1999/xlink" width="108" height="108" viewBox="0 0 108 108">
  <defs>
    <filter id="Path_904820" x="0" y="0" width="108" height="108" filterUnits="userSpaceOnUse">
      <feOffset dy="3" input="SourceAlpha"/>
      <feGaussianBlur stdDeviation="3" result="blur"/>
      <feFlood flood-opacity="0.161"/>
      <feComposite operator="in" in2="blur"/>
      <feComposite in="SourceGraphic"/>
    </filter>
  </defs>
  <g id="Group_1145631" data-name="Group 1145631" transform="translate(-201.245 -4079)">
    <g id="Icono" transform="translate(-413.856 -921)">
      <g transform="matrix(1, 0, 0, 1, 615.1, 5000)" filter="url(#Path_904820)">
        <g id="Path_904820-2" data-name="Path 904820" transform="translate(9 6)" fill="#ebf0f7">
          <path d="M 45 88.5 C 39.12687683105469 88.5 33.43022537231445 87.35007476806641 28.06830024719238 85.08217620849609 C 22.88852500915527 82.89131164550781 18.23629951477051 79.75458526611328 14.2408504486084 75.75914764404297 C 10.24541282653809 71.76370239257812 7.108687400817871 67.11147308349609 4.917825222015381 61.93170166015625 C 2.649924993515015 56.56977462768555 1.5 50.87312316894531 1.5 45 C 1.5 39.12687683105469 2.649924993515015 33.43022537231445 4.917825222015381 28.06830024719238 C 7.108687400817871 22.88852500915527 10.24541282653809 18.23629951477051 14.2408504486084 14.2408504486084 C 18.23629951477051 10.24541282653809 22.88852500915527 7.108687400817871 28.06830024719238 4.917825222015381 C 33.43022537231445 2.649924993515015 39.12687683105469 1.5 45 1.5 C 50.87312316894531 1.5 56.56977462768555 2.649924993515015 61.93170166015625 4.917825222015381 C 67.11147308349609 7.108687400817871 71.76370239257812 10.24541282653809 75.75914764404297 14.2408504486084 C 79.75458526611328 18.23629951477051 82.89131164550781 22.88852500915527 85.08217620849609 28.06830024719238 C 87.35007476806641 33.43022537231445 88.5 39.12687683105469 88.5 45 C 88.5 50.87312316894531 87.35007476806641 56.56977462768555 85.08217620849609 61.93170166015625 C 82.89131164550781 67.11147308349609 79.75458526611328 71.76370239257812 75.75914764404297 75.75914764404297 C 71.76370239257812 79.75458526611328 67.11147308349609 82.89131164550781 61.93170166015625 85.08217620849609 C 56.56977462768555 87.35007476806641 50.87312316894531 88.5 45 88.5 Z" stroke="none"/>
          <path d="M 45 3 C 39.32871246337891 3 33.82865524291992 4.110054016113281 28.65262985229492 6.299339294433594 C 23.65165710449219 8.414573669433594 19.15968322753906 11.44334411621094 15.301513671875 15.301513671875 C 11.44334411621094 19.15968322753906 8.414573669433594 23.65165710449219 6.299339294433594 28.65262985229492 C 4.110054016113281 33.82865524291992 3 39.32871246337891 3 45 C 3 50.67128753662109 4.110054016113281 56.17134475708008 6.299339294433594 61.34737396240234 C 8.414573669433594 66.34834289550781 11.44334411621094 70.84031677246094 15.301513671875 74.698486328125 C 19.15968322753906 78.55665588378906 23.65165710449219 81.58542633056641 28.65262985229492 83.70066070556641 C 33.82865524291992 85.88994598388672 39.32871246337891 87 45 87 C 50.67128753662109 87 56.17134475708008 85.88994598388672 61.34737396240234 83.70066070556641 C 66.34834289550781 81.58542633056641 70.84031677246094 78.55665588378906 74.698486328125 74.698486328125 C 78.55665588378906 70.84031677246094 81.58542633056641 66.34834289550781 83.70066070556641 61.34737396240234 C 85.88994598388672 56.17134475708008 87 50.67128753662109 87 45 C 87 39.32871246337891 85.88994598388672 33.82865524291992 83.70066070556641 28.65262985229492 C 81.58542633056641 23.65165710449219 78.55665588378906 19.15968322753906 74.698486328125 15.301513671875 C 70.84031677246094 11.44334411621094 66.34834289550781 8.414573669433594 61.34737396240234 6.299339294433594 C 56.17134475708008 4.110054016113281 50.67128753662109 3 45 3 M 45 0 C 69.85281372070312 0 90 20.14718627929688 90 45 C 90 69.85281372070312 69.85281372070312 90 45 90 C 20.14718627929688 90 0 69.85281372070312 0 45 C 0 20.14718627929688 20.14718627929688 0 45 0 Z" stroke="none" fill="#6e008a"/>
        </g>
      </g>
    </g>
    <g id="estructura-del-adn" transform="translate(223.458 4097.733)">
      <g id="Group_1145621" data-name="Group 1145621" transform="translate(12.994 1.791)">
        <path id="Path_981425" data-name="Path 981425" d="M109.477,29.7a21.228,21.228,0,0,0-.556,4.386A21.055,21.055,0,0,0,130.4,55.514a26.08,26.08,0,0,1,.662-4.621,15.49,15.49,0,0,0,.32-1.935,14.45,14.45,0,0,1-8.7-1.886,14.827,14.827,0,0,1-5.3-5.285A14.322,14.322,0,0,1,115.5,33.1a14.705,14.705,0,0,1,.32-1.935,26.443,26.443,0,0,0,.662-4.625c.292-5.851-1.577-11.512-6.61-15.329a3.249,3.249,0,1,0-3.938,5.169,9.864,9.864,0,0,1,2.193,2.283,12.652,12.652,0,0,1,1.749,8.825A21.168,21.168,0,0,1,109.477,29.7Z" transform="translate(-104.649 -10.553)" fill="#33d6f5" fill-rule="evenodd"/>
      </g>
      <g id="Group_1145622" data-name="Group 1145622" transform="translate(45.357 39.186)">
        <path id="Path_981426" data-name="Path 981426" d="M365.287,318.342a12.733,12.733,0,0,1,8.845,1.742,10.02,10.02,0,0,1,2.288,2.188,3.251,3.251,0,0,0,5.181-3.93c-3.826-5.022-9.5-6.883-15.367-6.592a21.53,21.53,0,0,1-.553,4.386A19.521,19.521,0,0,0,365.287,318.342Z" transform="translate(-365.287 -311.721)" fill="#33d6f5" fill-rule="evenodd"/>
      </g>
      <g id="Group_1145623" data-name="Group 1145623" transform="translate(23.842 17.774)">
        <path id="Path_981427" data-name="Path 981427" d="M206.013,153.016a14.366,14.366,0,0,1,1.89,8.685,15.517,15.517,0,0,1-.32,1.935,26.079,26.079,0,0,0-.662,4.621c-.292,5.851,1.573,11.515,6.606,15.332a3.249,3.249,0,1,0,3.938-5.169,10.013,10.013,0,0,1-2.193-2.283,12.657,12.657,0,0,1-1.746-8.825,19.561,19.561,0,0,1,.394-2.205,21.533,21.533,0,0,0,.553-4.386,21.055,21.055,0,0,0-21.48-21.436,26.44,26.44,0,0,1-.662,4.625,14.685,14.685,0,0,0-.32,1.935,14.406,14.406,0,0,1,8.7,1.886,14.823,14.823,0,0,1,5.3,5.285Z" transform="translate(-192.012 -139.28)" fill="#ff7b79" fill-rule="evenodd"/>
      </g>
      <g id="Group_1145624" data-name="Group 1145624" transform="translate(1.243 13.517)">
        <path id="Path_981428" data-name="Path 981428" d="M10.666,110.2c3.826,5.022,9.5,6.887,15.363,6.6a21.227,21.227,0,0,1,.556-4.386,21.268,21.268,0,0,0,.394-2.205,12.726,12.726,0,0,1-8.845-1.745,9.87,9.87,0,0,1-2.288-2.188,3.251,3.251,0,0,0-5.181,3.93Z" transform="translate(-10.005 -104.988)" fill="#ff7b79" fill-rule="evenodd"/>
      </g>
      <g id="Group_1145625" data-name="Group 1145625" transform="translate(42.675 6.644)">
        <path id="Path_981429" data-name="Path 981429" d="M345.091,56.916l1.4,2.427H349.3l2.809,0,1.4-2.423,1.4-2.427-1.4-2.427-1.4-2.427H346.5l-1.4,2.427-1.4,2.427Z" transform="translate(-343.687 -49.636)" fill="#99ebfa" fill-rule="evenodd"/>
      </g>
      <g id="Group_1145626" data-name="Group 1145626" transform="translate(51.097 1.79)">
        <path id="Path_981430" data-name="Path 981430" d="M412.923,17.829l1.4,2.427h5.617l1.4-2.427,1.4-2.427-1.4-2.427-1.4-2.427h-5.617l-1.4,2.427-1.4,2.427Z" transform="translate(-411.519 -10.549)" fill="#99ebfa" fill-rule="evenodd"/>
      </g>
      <g id="Group_1145627" data-name="Group 1145627" transform="translate(51.097 11.497)">
        <path id="Path_981431" data-name="Path 981431" d="M412.923,96l1.4,2.427h5.617l1.4-2.427,1.4-2.427-1.4-2.423-1.4-2.427h-5.617l-1.4,2.427-1.4,2.423Z" transform="translate(-411.519 -88.722)" fill="#99ebfa" fill-rule="evenodd"/>
      </g>
      <g id="Group_1145628" data-name="Group 1145628" transform="translate(5.019 33.087)">
        <path id="Path_981432" data-name="Path 981432" d="M40.416,265.944a3.349,3.349,0,1,0,3.347-3.34A3.345,3.345,0,0,0,40.416,265.944Z" transform="translate(-40.416 -262.604)" fill="#ffbdbc" fill-rule="evenodd"/>
      </g>
      <g id="Group_1145629" data-name="Group 1145629" transform="translate(51.632 27.96)">
        <path id="Path_981433" data-name="Path 981433" d="M415.827,224.652a3.349,3.349,0,1,0,3.351-3.34A3.346,3.346,0,0,0,415.827,224.652Z" transform="translate(-415.827 -221.312)" fill="#ffbdbc" fill-rule="evenodd"/>
      </g>
      <g id="Group_1145630" data-name="Group 1145630" transform="translate(0 0.549)">
        <path id="Path_981434" data-name="Path 981434" d="M53.66,389.971a1.242,1.242,0,0,0,1.242,1.242h5.051a1.242,1.242,0,1,0,0-2.483H54.9A1.242,1.242,0,0,0,53.66,389.971Z" transform="translate(-46.997 -340.53)"/>
        <path id="Path_981435" data-name="Path 981435" d="M3.34,388.729h-2.1a1.242,1.242,0,0,0,0,2.483h2.1a1.242,1.242,0,0,0,0-2.483Z" transform="translate(-0.001 -340.53)"/>
        <path id="Path_981436" data-name="Path 981436" d="M71.992,383.968a1.242,1.242,0,0,0-1.746.192L65,390.7H54.9a1.242,1.242,0,1,0,0,2.483H65.6a1.242,1.242,0,0,0,.969-.465l5.617-7A1.242,1.242,0,0,0,71.992,383.968Z" transform="translate(-46.997 -336.121)"/>
        <path id="Path_981437" data-name="Path 981437" d="M3.34,440.09h-2.1a1.242,1.242,0,0,0,0,2.483h2.1a1.242,1.242,0,0,0,0-2.483Z" transform="translate(-0.001 -385.514)"/>
        <path id="Path_981438" data-name="Path 981438" d="M3.34,491.452h-2.1a1.242,1.242,0,1,0,0,2.483h2.1a1.242,1.242,0,0,0,0-2.483Z" transform="translate(-0.001 -430.498)"/>
        <path id="Path_981439" data-name="Path 981439" d="M65.6,491.452H54.9a1.242,1.242,0,1,0,0,2.483H65.6a1.242,1.242,0,1,0,0-2.483Z" transform="translate(-46.997 -430.498)"/>
        <path id="Path_981440" data-name="Path 981440" d="M415.008,215.892a4.591,4.591,0,1,0-4.589,4.585A4.59,4.59,0,0,0,415.008,215.892Zm-6.7,0a2.107,2.107,0,1,1,2.109,2.1A2.106,2.106,0,0,1,408.31,215.892Z" transform="translate(-355.437 -185.141)"/>
        <path id="Path_981441" data-name="Path 981441" d="M39.6,257.185A4.591,4.591,0,1,0,35,261.77,4.592,4.592,0,0,0,39.6,257.185Zm-6.7,0a2.107,2.107,0,1,1,2.105,2.1A2.1,2.1,0,0,1,32.9,257.185Z" transform="translate(-26.639 -221.307)"/>
        <path id="Path_981442" data-name="Path 981442" d="M316.037,15.724,313.589,11.5l2.449-4.231a1.242,1.242,0,0,0,0-1.244l-2.809-4.853a1.242,1.242,0,0,0-1.075-.62h-5.617a1.242,1.242,0,0,0-1.075.62L303.012,5.4h-4.9a1.242,1.242,0,0,0-1.075.62l-2.45,4.233h-4.9a1.242,1.242,0,1,0,0,2.483h4.9l2.45,4.233a1.242,1.242,0,0,0,1.075.62l4.9,0,2.45,4.233a1.242,1.242,0,0,0,1.075.62h4.9l2.45,4.234a1.242,1.242,0,1,0,2.149-1.244L313.589,21.2l2.449-4.231a1.241,1.241,0,0,0,0-1.244Zm-13.025-.618-4.181,0-2.09-3.612,2.09-3.612h4.182L305.1,11.5Zm8.426,4.852h-4.185l-2.09-3.611,2.09-3.609h4.185l2.09,3.609Zm0-9.7h-4.185l-2.09-3.612,2.09-3.612h4.185l2.09,3.612Z" transform="translate(-252.632 -0.549)"/>
        <path id="Path_981443" data-name="Path 981443" d="M47.536,37.945A22.307,22.307,0,0,0,26.1,16.549,18.329,18.329,0,0,0,18.964,1.462a4.49,4.49,0,0,0-7.17,4.179,4.455,4.455,0,0,0,1.731,2.969A8.742,8.742,0,0,1,14.811,9.8L9.273,15.328a8.768,8.768,0,0,1-1.2-1.286,4.51,4.51,0,0,0-6.3-.855,4.489,4.489,0,0,0-.857,6.289c3.5,4.6,8.835,7.093,15.121,7.112A22.023,22.023,0,0,0,18.965,36.8a1.242,1.242,0,1,0,2.152-1.239,19.672,19.672,0,0,1-2.084-14.343c1.115-4.783.572-8.91-1.511-11.969a1.237,1.237,0,0,0-.078-.112,11.167,11.167,0,0,0-2.417-2.5,2.01,2.01,0,0,1-.383-2.809,2.017,2.017,0,0,1,2.82-.381c5.316,4.033,7.317,10.842,5.489,18.682A15.787,15.787,0,0,0,38.277,41.506c-.023.114-.047.228-.074.342A28.325,28.325,0,0,0,37.6,45.5a19.656,19.656,0,0,1-9.185-2.635,1.242,1.242,0,1,0-1.247,2.148,22.141,22.141,0,0,0,10.308,2.969,18.323,18.323,0,0,0,7.135,15.091,4.491,4.491,0,1,0,5.44-7.147,8.77,8.77,0,0,1-1.286-1.194L54.3,49.2a8.773,8.773,0,0,1,1.2,1.285,4.493,4.493,0,0,0,7.157-5.434C59.158,40.461,53.824,37.965,47.536,37.945ZM16.185,11.939a11.96,11.96,0,0,1,.887,5.648,11.987,11.987,0,0,1-5.659-.887ZM2.891,17.971a2.006,2.006,0,0,1,.381-2.805,2.022,2.022,0,0,1,2.824.381c2.415,3.169,6.071,4.722,10.638,4.545-.039.194-.08.381-.122.559a22.651,22.651,0,0,0-.529,3.455A15.943,15.943,0,0,1,2.891,17.971Zm22.128,7.542a13.215,13.215,0,0,1,5.428,1.051l-4.376,4.366A13.168,13.168,0,0,1,25.019,25.514Zm2.3,7.684,5.4-5.392a13.452,13.452,0,0,1,3.539,3.531l-5.4,5.391a13.449,13.449,0,0,1-3.54-3.53Zm5.813,4.771L37.5,33.6a13.185,13.185,0,0,1,1.052,5.416A13.241,13.241,0,0,1,33.128,37.969Zm16.191,21.26a1.982,1.982,0,0,1-.388,1.48,2.021,2.021,0,0,1-2.824.385c-5.318-4.034-7.317-10.843-5.486-18.683A15.786,15.786,0,0,0,25.3,23.029c.024-.114.048-.228.074-.342a28.311,28.311,0,0,0,.607-3.658,19.806,19.806,0,0,1,18.564,24.29c-1.478,6.321-.056,11.5,4,14.586a1.988,1.988,0,0,1,.773,1.325Zm-1.932-6.635a11.948,11.948,0,0,1-.887-5.647,11.964,11.964,0,0,1,5.661.884Zm13.684-4.554a2.01,2.01,0,0,1-3.594.945c-2.416-3.171-6.073-4.723-10.639-4.542.039-.194.08-.381.122-.558a22.672,22.672,0,0,0,.529-3.455c4.127,0,9.411,1.167,13.194,6.131A1.984,1.984,0,0,1,61.071,48.039Z" transform="translate(0 -0.549)"/>
        <path id="Path_981444" data-name="Path 981444" d="M179.964,315.53a1.244,1.244,0,1,0-.879-.366l0,0A1.233,1.233,0,0,0,179.964,315.53Z" transform="translate(-156.53 -274.243)"/>
      </g>
    </g>
  </g>
</svg>
